<svg width="134" height="134" viewBox="0 0 134 134" fill="none" xmlns="http://www.w3.org/2000/svg">
<ellipse cx="66.8568" cy="67" rx="66.8568" ry="67" fill="#0084FF"/>
<circle cx="67" cy="68" r="50" fill="#A93C28"/>
<path d="M92.0597 87.0642L55.1685 106.831L55.2719 67.1049L92.0597 87.0642Z" fill="white"/>
<path d="M20.472 50.328H12.36V45.48H20.472V36.888H25.32V45.48H33.48V50.328H25.32V58.968H20.472V50.328ZM39.6278 55.896C39.6278 54.168 40.1078 52.664 41.0678 51.384C42.0278 50.104 43.2758 49.128 44.8118 48.456C46.0278 47.912 47.4518 47.368 49.0838 46.824C50.7158 46.28 51.9798 45.704 52.8758 45.096C53.7718 44.488 54.2198 43.768 54.2198 42.936V38.952C54.2198 37.96 53.8198 37.304 53.0198 36.984C52.1558 36.632 50.8118 36.456 48.9878 36.456C46.7798 36.456 43.8678 36.856 40.2518 37.656V32.376C43.4518 31.704 46.7958 31.368 50.2838 31.368C54.0598 31.368 56.8598 31.944 58.6838 33.096C60.5398 34.248 61.4678 36.168 61.4678 38.856V43.176C61.4678 44.808 60.9718 46.232 59.9798 47.448C59.0198 48.632 57.7718 49.528 56.2358 50.136C54.7958 50.744 53.3238 51.288 51.8198 51.768C50.1878 52.344 48.8918 52.984 47.9318 53.688C47.0038 54.392 46.5398 55.224 46.5398 56.184V57.768H61.5157V63H39.6278V55.896ZM80.3355 56.712H65.9355V51.192L78.7515 31.848H86.6715V51.672H90.0315V56.712H86.6715V63H80.3355V56.712ZM80.3355 51.672V38.472L71.9355 51.672H80.3355ZM105.251 63.48C102.563 63.48 99.0753 63.24 94.7873 62.76V57.192L96.3233 57.48C96.9313 57.608 97.2673 57.688 97.3313 57.72L98.9633 58.008C99.3473 58.072 100.163 58.168 101.411 58.296C102.371 58.392 103.347 58.44 104.339 58.44C106.195 58.44 107.475 58.216 108.179 57.768C108.915 57.32 109.283 56.472 109.283 55.224V51.624C109.283 50.12 107.667 49.368 104.435 49.368H98.7713V44.568H104.435C106.931 44.568 108.179 43.656 108.179 41.832V38.808C108.179 38.136 108.051 37.624 107.795 37.272C107.539 36.888 107.075 36.616 106.403 36.456C105.763 36.296 104.803 36.216 103.523 36.216C101.699 36.216 98.8833 36.408 95.0753 36.792V31.8C99.4273 31.512 102.499 31.368 104.291 31.368C108.195 31.368 111.011 31.816 112.739 32.712C114.499 33.608 115.379 35.192 115.379 37.464V42.6C115.379 43.528 115.091 44.328 114.515 45C113.971 45.64 113.267 46.072 112.403 46.296C115.219 47.288 116.627 48.84 116.627 50.952V56.04C116.627 58.696 115.715 60.6 113.891 61.752C112.067 62.904 109.187 63.48 105.251 63.48Z" fill="white"/>
</svg>
