<svg width="134" height="134" viewBox="0 0 134 134" fill="none" xmlns="http://www.w3.org/2000/svg">
<ellipse cx="66.8568" cy="67" rx="66.8568" ry="67" fill="#2895A9"/>
<circle cx="67" cy="68" r="50" fill="#1A1A1A"/>
<path d="M94.0527 67.074L51.4721 100.4L51.6461 33.5257L94.0527 67.074Z" fill="#A93C28"/>
<path d="M36.8125 66.1328C36.625 66.5078 36.3672 66.8008 36.0391 67.0117C35.7109 67.2227 35.418 67.4922 35.1602 67.8203C34.7852 67.7969 34.4219 67.75 34.0703 67.6797C33.7422 67.6094 33.3906 67.5742 33.0156 67.5742C32.7578 67.5742 32.4883 67.6211 32.207 67.7148C31.9258 67.7852 31.6914 67.9492 31.5039 68.207C30.5664 68.0195 29.6172 67.9258 28.6562 67.9258C27.7188 67.9023 26.7812 67.8672 25.8438 67.8203C25.3047 68.1484 24.7188 68.3359 24.0859 68.3828C23.4766 68.4297 22.8789 68.5352 22.293 68.6992C22.1992 69.2383 22.1055 69.7891 22.0117 70.3516C21.918 70.8906 21.8711 71.4297 21.8711 71.9688C21.8711 72.3438 21.918 72.7422 22.0117 73.1641C22.1055 73.5859 22.3164 73.9023 22.6445 74.1133C22.6211 74.8164 22.6211 75.4492 22.6445 76.0117C22.668 76.5742 22.5508 77.1953 22.293 77.875C22.1758 77.8281 22.0586 77.7812 21.9414 77.7344C21.8477 77.6875 21.7422 77.6641 21.625 77.6641C21.4141 77.6641 21.2266 77.7461 21.0625 77.9102C20.8984 78.0508 20.7461 78.2266 20.6055 78.4375C20.4648 78.625 20.3125 78.8125 20.1484 79C20.0078 79.1875 19.832 79.3164 19.6211 79.3867C19.1055 79.2461 18.6016 79 18.1094 78.6484C18.0391 78.3203 17.9688 78.0039 17.8984 77.6992C17.8516 77.3711 17.8281 77.043 17.8281 76.7148C17.8281 76.3398 17.8867 75.9414 18.0039 75.5195C17.8633 75.168 17.7578 74.8164 17.6875 74.4648C17.6406 74.1133 17.6172 73.75 17.6172 73.375C17.6172 72.8828 17.6523 72.3906 17.7227 71.8984C17.793 71.3828 17.8281 70.8555 17.8281 70.3164C17.8281 70.0586 17.8164 69.8125 17.793 69.5781C17.7695 69.3203 17.7109 69.0625 17.6172 68.8047C17.1953 68.8516 16.7734 68.875 16.3516 68.875C15.9531 68.875 15.543 68.8867 15.1211 68.9102C14.7227 68.9336 14.3242 68.9922 13.9258 69.0859C13.5273 69.1562 13.1289 69.2852 12.7305 69.4727C12.4727 69.3086 12.168 69.2266 11.8164 69.2266C11.6055 69.2266 11.3945 69.25 11.1836 69.2969C10.9727 69.3438 10.75 69.3672 10.5156 69.3672C10.2578 69.3672 9.98828 69.3086 9.70703 69.1914C9.40234 68.582 9.02734 68.043 8.58203 67.5742C8.16016 67.082 7.80859 66.5312 7.52734 65.9219C8.58203 65.7812 9.625 65.6875 10.6562 65.6406C11.6875 65.5938 12.7305 65.5469 13.7852 65.5C13.9727 65.5 14.207 65.5 14.4883 65.5C14.7695 65.4766 15.0508 65.4648 15.332 65.4648C15.6367 65.4648 15.9297 65.4648 16.2109 65.4648C16.4922 65.4414 16.7148 65.418 16.8789 65.3945C17.0664 65.3477 17.207 65.2539 17.3008 65.1133C17.3945 64.9492 17.5469 64.8438 17.7578 64.7969C17.6875 64.2109 17.6289 63.5664 17.582 62.8633C17.5352 62.1602 17.4883 61.457 17.4414 60.7539C17.3945 60.0273 17.3242 59.3242 17.2305 58.6445C17.1367 57.9648 16.9844 57.3555 16.7734 56.8164C16.8203 56.5586 16.8906 56.3125 16.9844 56.0781C17.1016 55.8438 17.1953 55.5859 17.2656 55.3047C17.4531 55.2812 17.6289 55.2227 17.793 55.1289C17.9805 55.0352 18.1797 54.9883 18.3906 54.9883C18.5078 54.9883 18.6953 55.0469 18.9531 55.1641C19.2344 55.2578 19.5156 55.375 19.7969 55.5156C20.1016 55.6562 20.3828 55.8086 20.6406 55.9727C20.8984 56.1133 21.0625 56.2305 21.1328 56.3242V56.5C21.1328 56.8984 21.168 57.2734 21.2383 57.625C21.332 57.9531 21.4375 58.293 21.5547 58.6445L21.6953 58.9961C21.7422 59.1133 21.7773 59.2305 21.8008 59.3477C21.8242 59.4648 21.8359 59.5938 21.8359 59.7344V60.0859C21.8359 60.5547 21.8008 61.0234 21.7305 61.4922C21.6836 61.9375 21.6602 62.3828 21.6602 62.8281C21.6602 63.0625 21.6719 63.3789 21.6953 63.7773C21.7422 64.1758 21.8125 64.457 21.9062 64.6211C21.9531 64.7617 22.0352 64.8555 22.1523 64.9023C22.293 64.9258 22.375 65.0078 22.3984 65.1484C23.1016 64.9609 23.8516 64.8789 24.6484 64.9023C25.4453 64.9258 26.207 64.9141 26.9336 64.8672L27.4961 64.7969C27.6836 64.7734 27.8711 64.7383 28.0586 64.6914C28.1758 64.668 28.3047 64.6328 28.4453 64.5859C28.6094 64.5391 28.75 64.5156 28.8672 64.5156C29.5 64.5156 30.1328 64.5859 30.7656 64.7266C31.3984 64.8438 32.0547 64.9023 32.7344 64.9023C33.3906 64.9023 33.9883 64.8086 34.5273 64.6211C34.9258 64.8086 35.3477 65.0078 35.793 65.2188C36.2617 65.4297 36.6016 65.7344 36.8125 66.1328ZM76.3984 78.8242C76.2578 79.0117 76.082 79.1406 75.8711 79.2109C75.6602 79.2812 75.4492 79.3398 75.2383 79.3867C75.0273 79.4336 74.8047 79.4805 74.5703 79.5273C74.3594 79.5977 74.1719 79.7031 74.0078 79.8438C73.9609 79.8672 73.9258 79.8906 73.9023 79.9141C73.9023 79.9375 73.8789 79.9492 73.832 79.9492C73.7617 79.9492 73.6914 79.8906 73.6211 79.7734C73.5742 79.6797 73.4922 79.6094 73.375 79.5625C72.7656 79.8906 72.1094 80.1719 71.4062 80.4062C70.7031 80.6641 70 80.9219 69.2969 81.1797C68.6172 81.4609 67.9492 81.7539 67.293 82.0586C66.6367 82.3867 66.0625 82.7852 65.5703 83.2539C65.1953 83.3008 64.8086 83.3828 64.4102 83.5C64.0352 83.6406 63.7539 83.8984 63.5664 84.2734H63.4609C63.3672 84.2734 63.2969 84.2383 63.25 84.168C63.2031 84.1211 63.1328 84.0977 63.0391 84.0977C62.875 84.0977 62.7695 84.1445 62.7227 84.2383C62.6758 84.332 62.6406 84.4258 62.6172 84.5195C62.6172 84.6367 62.6055 84.7422 62.582 84.8359C62.5586 84.9297 62.4883 84.9766 62.3711 84.9766C62.3242 84.9766 62.2773 84.9297 62.2305 84.8359C62.1836 84.7656 62.0664 84.7422 61.8789 84.7656C61.0117 85.2344 60.1094 85.7031 59.1719 86.1719C58.2344 86.6641 57.4258 87.2852 56.7461 88.0352C56.6992 87.9883 56.6406 87.9648 56.5703 87.9648C56.5234 87.9648 56.4883 87.9648 56.4648 87.9648L56.4297 88C56.3828 88 56.3477 87.9883 56.3242 87.9648C56.3008 87.9414 56.2773 87.9297 56.2539 87.9297C55.7148 88.3984 55.1406 88.8203 54.5312 89.1953C53.9453 89.5938 53.3477 89.9805 52.7383 90.3555C52.1289 90.7305 51.5312 91.1055 50.9453 91.4805C50.3594 91.8789 49.8086 92.3242 49.293 92.8164C48.9648 92.8398 48.6367 92.9102 48.3086 93.0273C47.9805 93.1445 47.6523 93.2617 47.3242 93.3789C47.0195 93.4961 46.7031 93.6016 46.375 93.6953C46.0469 93.8125 45.7188 93.8711 45.3906 93.8711C44.7812 93.8711 44.2773 93.6016 43.8789 93.0625C43.8086 93.1094 43.7383 93.1445 43.668 93.168C43.6211 93.1914 43.5625 93.2031 43.4922 93.2031C43.3047 93.2031 43.1289 93.1211 42.9648 92.957C42.8242 92.8164 42.625 92.7695 42.3672 92.8164C42.0625 92.4883 41.8398 92.0664 41.6992 91.5508C41.582 91.0586 41.4297 90.6016 41.2422 90.1797C41.2891 89.2656 41.4414 88.375 41.6992 87.5078C41.9805 86.6641 42.1562 85.7852 42.2266 84.8711C42.4375 84.6602 42.6016 84.4141 42.7188 84.1328C42.8359 83.875 42.9414 83.5938 43.0352 83.2891C43.1523 83.0078 43.2695 82.7266 43.3867 82.4453C43.5039 82.1641 43.668 81.9297 43.8789 81.7422C44.0195 81.0391 44.2539 80.3711 44.582 79.7383C44.9102 79.1055 45.1328 78.4258 45.25 77.6992C45.4375 77.582 45.5898 77.4414 45.707 77.2773C45.8477 77.1133 46 76.9609 46.1641 76.8203V76.6094C46.1641 76.4219 46.1172 76.2812 46.0234 76.1875C46.1875 75.7656 46.3633 75.3672 46.5508 74.9922C46.7617 74.6172 46.9609 74.2422 47.1484 73.8672C47.3359 73.4922 47.5 73.1055 47.6406 72.707C47.7812 72.3086 47.875 71.875 47.9219 71.4062C48.1094 71.2422 48.25 71.043 48.3438 70.8086C48.4375 70.5508 48.5195 70.3047 48.5898 70.0703C48.6836 69.8125 48.7773 69.5781 48.8711 69.3672C48.9883 69.1562 49.1758 68.9922 49.4336 68.875C49.4102 68.8281 49.3984 68.7695 49.3984 68.6992C49.3984 68.4648 49.457 68.2539 49.5742 68.0664C49.7148 67.8789 49.7852 67.6797 49.7852 67.4688C49.7852 67.3516 49.75 67.2344 49.6797 67.1172C50.1484 66.1328 50.6055 65.1719 51.0508 64.2344C51.4961 63.2734 51.8359 62.2539 52.0703 61.1758C52.3047 61.0586 52.4453 60.8828 52.4922 60.6484C52.5391 60.4141 52.6445 60.2031 52.8086 60.0156V59.8398C52.8086 59.4414 52.8906 58.9961 53.0547 58.5039C53.2422 58.0117 53.4648 57.6016 53.7227 57.2734C53.8398 56.4531 53.9688 55.5977 54.1094 54.707C54.2734 53.793 54.5195 52.9609 54.8477 52.2109C54.8008 52.0469 54.7305 51.8828 54.6367 51.7188C54.5664 51.5547 54.5078 51.3789 54.4609 51.1914C53.875 51.5195 53.207 51.8125 52.457 52.0703C52.3164 52.1172 52.1641 52.1641 52 52.2109C51.8359 52.2344 51.6953 52.2812 51.5781 52.3516C51.4375 52.3984 51.3555 52.5156 51.332 52.7031C51.3086 52.8672 51.2969 53.0078 51.2969 53.125C51.0156 53.125 50.793 53.1836 50.6289 53.3008C50.4648 53.418 50.3008 53.5586 50.1367 53.7227C49.9961 53.8633 49.8438 54.0039 49.6797 54.1445C49.5156 54.2617 49.3047 54.3438 49.0469 54.3906C48.7656 54.6719 48.5312 54.8945 48.3438 55.0586C48.1562 55.1992 47.8867 55.3398 47.5352 55.4805C47.418 55.5273 47.3008 55.6211 47.1836 55.7617L46.832 56.1836C46.7148 56.3242 46.5977 56.4414 46.4805 56.5352C46.3867 56.6289 46.2812 56.6641 46.1641 56.6406C46.0938 56.8516 45.9883 57.0273 45.8477 57.168C45.7305 57.3086 45.6016 57.4492 45.4609 57.5898C45.3203 57.707 45.2031 57.8477 45.1094 58.0117C45.0156 58.1758 44.9805 58.3867 45.0039 58.6445C44.9102 58.7383 44.8281 58.7852 44.7578 58.7852C44.6875 58.7852 44.6055 58.7383 44.5117 58.6445C44.4648 58.9258 44.3711 59.1602 44.2305 59.3477C44.1133 59.5117 43.9727 59.6641 43.8086 59.8047C43.6445 59.9453 43.4688 60.0859 43.2812 60.2266C43.0938 60.3672 42.918 60.5195 42.7539 60.6836C42.543 60.6602 42.3555 60.6133 42.1914 60.543C42.0508 60.4727 41.8984 60.4023 41.7344 60.332C41.5703 60.2617 41.3945 60.2148 41.207 60.1914C41.043 60.1445 40.832 60.1328 40.5742 60.1562C40.5977 60.0156 40.5742 59.9102 40.5039 59.8398C40.4336 59.7695 40.3398 59.7109 40.2227 59.6641C40.2227 59.4766 40.2227 59.2422 40.2227 58.9609C40.2461 58.6797 40.2578 58.3984 40.2578 58.1172C40.2812 57.8125 40.3164 57.5312 40.3633 57.2734C40.4102 57.0156 40.4805 56.8047 40.5742 56.6406C40.7148 56.4062 40.9375 56.1953 41.2422 56.0078C41.5703 55.8203 41.9102 55.6328 42.2617 55.4453C42.6367 55.2344 42.9883 55.0234 43.3164 54.8125C43.668 54.5781 43.9492 54.2969 44.1602 53.9688C44.1836 53.9922 44.2305 54.0039 44.3008 54.0039C44.4883 54.0039 44.6406 53.957 44.7578 53.8633C44.875 53.6523 45.0273 53.5 45.2148 53.4062C45.4258 53.3125 45.6133 53.1719 45.7773 52.9844C45.8477 52.9141 45.8828 52.832 45.8828 52.7383C45.9062 52.6211 45.9531 52.5273 46.0234 52.457C46.0938 52.3867 46.2227 52.3164 46.4102 52.2461C46.6211 52.1758 46.7852 52.082 46.9023 51.9648C47.043 51.8477 47.1484 51.7188 47.2188 51.5781C47.3125 51.4375 47.418 51.3086 47.5352 51.1914C47.7227 51.0508 47.9219 50.9453 48.1328 50.875C48.3672 50.8047 48.5898 50.7109 48.8008 50.5938C49.0117 50.4531 49.1992 50.2891 49.3633 50.1016C49.5508 49.9141 49.6914 49.6914 49.7852 49.4336C50.2539 49.2227 50.7109 49.0117 51.1562 48.8008C51.6016 48.5664 52.0352 48.3203 52.457 48.0625C52.6914 47.9219 52.9141 47.7695 53.125 47.6055C53.3359 47.418 53.5469 47.2422 53.7578 47.0781C53.9922 46.9141 54.2266 46.7734 54.4609 46.6562C54.7188 46.5391 54.9883 46.4805 55.2695 46.4805C55.6211 46.4805 55.8906 46.5508 56.0781 46.6914C56.2656 46.8086 56.4297 46.9492 56.5703 47.1133C56.7344 47.2539 56.8984 47.4062 57.0625 47.5703C57.25 47.7344 57.4844 47.8516 57.7656 47.9219C58 48.2969 58.1523 48.707 58.2227 49.1523C58.3164 49.5742 58.375 50.0195 58.3984 50.4883C58.4219 50.9336 58.4219 51.3789 58.3984 51.8242C58.3984 52.2695 58.4336 52.7031 58.5039 53.125C58.3633 53.5234 58.1992 53.9102 58.0117 54.2852C57.8242 54.6602 57.7305 55.0586 57.7305 55.4805C57.7305 55.6445 57.7422 55.7852 57.7656 55.9023H57.3438C57.25 56.6758 57.0742 57.4375 56.8164 58.1875C56.5586 58.9141 56.2656 59.6406 55.9375 60.3672L54.9883 62.5117C54.6836 63.2148 54.4258 63.9414 54.2148 64.6914C54.168 64.9023 54.0859 65.0312 53.9688 65.0781C53.8516 65.1016 53.7695 65.1953 53.7227 65.3594C53.6055 65.6172 53.5117 65.8984 53.4414 66.2031C53.3711 66.5078 53.2773 66.8008 53.1602 67.082C52.9258 67.6914 52.6914 68.2773 52.457 68.8398C52.2227 69.4023 51.9766 69.9531 51.7188 70.4922V70.8438C51.7188 70.9609 51.7539 71.0195 51.8242 71.0195C51.0742 72.0508 50.5703 73.2227 50.3125 74.5352C50.125 74.6758 49.9844 74.8516 49.8906 75.0625C49.8203 75.25 49.7031 75.4141 49.5391 75.5547C49.375 76.2344 49.1523 76.9023 48.8711 77.5586C48.6133 78.1914 48.3438 78.8242 48.0625 79.457C47.7812 80.0898 47.5117 80.7227 47.2539 81.3555C46.9961 82.0117 46.7969 82.6797 46.6562 83.3594C46.3984 83.5938 46.1875 83.875 46.0234 84.2031C45.8828 84.5312 45.7539 84.8828 45.6367 85.2578C45.543 85.6328 45.4492 86.0078 45.3555 86.3828C45.2852 86.7578 45.2031 87.0977 45.1094 87.4023L44.7578 88.668V89.3711C44.7578 89.4883 44.7461 89.6172 44.7227 89.7578C44.6992 89.8984 44.6289 89.9922 44.5117 90.0391C44.5586 90.2031 44.6172 90.332 44.6875 90.4258C44.7812 90.5195 44.8047 90.6484 44.7578 90.8125C44.8516 91 45.0156 91.1055 45.25 91.1289C45.5078 91.1758 45.7305 91.2344 45.918 91.3047C46.1055 91.2578 46.2109 91.1523 46.2344 90.9883C46.2578 90.8242 46.3164 90.6836 46.4102 90.5664C46.6211 90.2852 46.9375 89.9805 47.3594 89.6523C47.8047 89.3242 48.2734 88.9844 48.7656 88.6328C49.2812 88.2812 49.7734 87.9414 50.2422 87.6133C50.7344 87.3086 51.1328 87.0273 51.4375 86.7695H52.0703C52.9141 86.2305 53.7578 85.7031 54.6016 85.1875C55.4453 84.6953 56.3242 84.25 57.2383 83.8516C57.4727 83.5469 57.7539 83.3125 58.082 83.1484C58.4336 82.9844 58.7852 82.8203 59.1367 82.6562C59.5117 82.5156 59.8633 82.3633 60.1914 82.1992C60.543 82.0352 60.8242 81.8008 61.0352 81.4961C61.293 81.4492 61.5742 81.3906 61.8789 81.3203C62.1836 81.25 62.4062 81.0859 62.5469 80.8281H62.6875C62.7578 80.8281 62.8281 80.8398 62.8984 80.8633C62.9688 80.9102 63.0156 80.9805 63.0391 81.0742C63.2031 81.0273 63.2969 80.9219 63.3203 80.7578C63.3672 80.5938 63.4492 80.4531 63.5664 80.3359C64.2461 80.0781 64.9375 79.8086 65.6406 79.5273C66.3438 79.2461 67.0352 78.9297 67.7148 78.5781C68.043 78.5781 68.4062 78.5312 68.8047 78.4375C69.2266 78.3438 69.543 78.1328 69.7539 77.8047C69.8008 77.8281 69.8594 77.8398 69.9297 77.8398C70.1875 77.8398 70.4336 77.8047 70.668 77.7344C70.9258 77.6406 71.1836 77.5469 71.4414 77.4531C71.6992 77.3359 71.957 77.2305 72.2148 77.1367C72.4727 77.043 72.7422 76.9844 73.0234 76.9609H73.0938C73.1406 76.9609 73.1523 76.9023 73.1289 76.7852C73.1289 76.6445 73.1289 76.5625 73.1289 76.5391C73.1289 76.4453 73.1758 76.4102 73.2695 76.4336C73.3398 76.4102 73.457 76.3984 73.6211 76.3984C73.8789 76.3984 74.1133 76.457 74.3242 76.5742C74.5586 76.668 74.7812 76.7852 74.9922 76.9258C75.2031 77.0664 75.4141 77.2188 75.625 77.3828C75.8359 77.5234 76.0586 77.6289 76.293 77.6992C76.2461 77.8867 76.2227 78.0391 76.2227 78.1562C76.2227 78.2734 76.2344 78.3906 76.2578 78.5078C76.3047 78.6016 76.3516 78.707 76.3984 78.8242ZM87.4375 43.1406C87.3672 44.6875 87.2148 46.2344 86.9805 47.7812C86.7461 49.3047 86.4766 50.8281 86.1719 52.3516C85.8906 53.875 85.6094 55.3984 85.3281 56.9219C85.0469 58.4453 84.8242 59.9805 84.6602 61.5273C84.8477 61.4805 84.9766 61.457 85.0469 61.457C85.3047 61.457 85.6211 61.5625 85.9961 61.7734C86.3711 61.9609 86.6875 62.1016 86.9453 62.1953V62.5117C86.9453 62.6289 86.9922 62.6875 87.0859 62.6875V62.793C87.0859 63.1211 87.0039 63.3906 86.8398 63.6016C86.6992 63.7891 86.6172 64.0352 86.5938 64.3398C86.3828 64.4805 86.1602 64.6211 85.9258 64.7617C85.6914 64.8789 85.4922 65.0312 85.3281 65.2188C85.2344 65.3359 85.1758 65.4766 85.1523 65.6406C85.1289 65.8047 85.0586 65.957 84.9414 66.0977C84.8242 66.2852 84.6484 66.4375 84.4141 66.5547C84.2031 66.6484 84.0391 66.7891 83.9219 66.9766C83.8281 67.1406 83.793 67.3281 83.8164 67.5391C83.8398 67.75 83.793 67.9492 83.6758 68.1367C83.582 68.2539 83.4648 68.3477 83.3242 68.418C83.207 68.4883 83.1133 68.5938 83.043 68.7344C82.9258 68.9922 82.8555 69.2969 82.832 69.6484C82.8086 70 82.75 70.3281 82.6562 70.6328C82.6094 70.8906 82.5391 71.125 82.4453 71.3359C82.3516 71.5469 82.3047 71.7695 82.3047 72.0039V72.2148C82.3047 72.332 82.2578 72.4023 82.1641 72.4258C82.0703 72.4258 81.9883 72.4258 81.918 72.4258C81.7773 74.1133 81.6133 75.7891 81.4258 77.4531C81.2383 79.0938 81.1445 80.7578 81.1445 82.4453V83.7109C81.1445 83.8516 81.2031 83.9453 81.3203 83.9922C81.4609 84.0391 81.5312 84.1445 81.5312 84.3086C81.5312 84.4023 81.5195 84.4844 81.4961 84.5547C81.4961 84.6484 81.4961 84.7422 81.4961 84.8359C81.4961 85.2344 81.5781 85.6328 81.7422 86.0312C81.9062 86.4297 82.0352 86.8281 82.1289 87.2266L82.3047 88.1758C82.3516 88.3867 82.4453 88.5859 82.5859 88.7734C82.75 88.9844 82.9141 89.1953 83.0781 89.4062C83.2422 89.6172 83.3945 89.8516 83.5352 90.1094C83.6758 90.3906 83.7695 90.707 83.8164 91.0586C83.6289 91.3398 83.3359 91.5273 82.9375 91.6211C82.5391 91.7383 82.1992 91.8906 81.918 92.0781C81.9414 91.7734 81.8828 91.5391 81.7422 91.375C81.625 91.2344 81.4727 91.1055 81.2852 90.9883C81.1211 90.8945 80.9453 90.8008 80.7578 90.707C80.5703 90.6133 80.418 90.4844 80.3008 90.3203C79.8086 89.6172 79.3984 88.832 79.0703 87.9648C78.7656 87.1211 78.5195 86.2422 78.332 85.3281C78.1445 84.4141 78.0156 83.5 77.9453 82.5859C77.875 81.6719 77.8398 80.8047 77.8398 79.9844V79C77.8398 78.6953 77.8516 78.3789 77.875 78.0508C77.8984 77.6758 77.9336 77.3125 77.9805 76.9609C78.0508 76.5859 78.0625 76.1992 78.0156 75.8008C78.3438 74.9336 78.5664 74.0078 78.6836 73.0234C78.8242 72.0156 78.9414 71.0547 79.0352 70.1406C78.4492 70.2578 77.8047 70.4805 77.1016 70.8086C76.3984 71.1367 75.8125 71.5 75.3438 71.8984C75.0625 71.7344 74.7812 71.6523 74.5 71.6523C74.0547 71.6523 73.6328 71.7461 73.2344 71.9336C72.8594 72.0977 72.4492 72.1797 72.0039 72.1797C71.8398 72.1797 71.7109 72.168 71.6172 72.1445C71.5234 72.1211 71.4414 72.0859 71.3711 72.0391C71.3008 71.9922 71.2188 71.9453 71.125 71.8984C71.0547 71.8516 70.9492 71.8047 70.8086 71.7578C70.3164 71.5938 69.8828 71.418 69.5078 71.2305C69.1328 71.043 68.8047 70.8203 68.5234 70.5625C68.2422 70.2812 67.9961 69.9531 67.7852 69.5781C67.5977 69.2031 67.4336 68.7461 67.293 68.207C67.2461 67.9727 67.1875 67.7148 67.1172 67.4336C67.0703 67.1523 67.0469 66.8828 67.0469 66.625C67.0469 66.4375 67.0938 66.1562 67.1875 65.7812C67.2812 65.4062 67.3281 65.043 67.3281 64.6914C67.3281 64.5273 67.3047 64.3516 67.2578 64.1641C67.2344 63.9766 67.1641 63.8242 67.0469 63.707C67.2578 63.2852 67.4102 62.8516 67.5039 62.4062C67.6211 61.9375 67.7266 61.4688 67.8203 61C67.9141 60.5078 68.0195 60.0391 68.1367 59.5938C68.2539 59.125 68.4414 58.6797 68.6992 58.2578C68.6758 57.3906 68.7344 56.6406 68.875 56.0078C69.0156 55.3516 69.2852 54.6367 69.6836 53.8633V53.7578C69.6836 53.3359 69.7305 52.9727 69.8242 52.668C69.918 52.3633 70.0352 52.082 70.1758 51.8242C70.3164 51.543 70.4688 51.2734 70.6328 51.0156C70.7969 50.7578 70.9375 50.4531 71.0547 50.1016C71.3125 49.9141 71.582 49.7852 71.8633 49.7148C72.168 49.6445 72.4844 49.6094 72.8125 49.6094C73.3047 49.6094 73.7852 49.6914 74.2539 49.8555C74.3711 50.043 74.4766 50.2305 74.5703 50.418C74.6875 50.6055 74.7461 50.8281 74.7461 51.0859C74.7461 51.2969 74.6992 51.4727 74.6055 51.6133C74.5352 51.7539 74.4297 51.8828 74.2891 52C74.1719 52.0938 74.043 52.1992 73.9023 52.3164C73.7852 52.4336 73.6797 52.5625 73.5859 52.7031C73.3516 53.0547 73.1641 53.4531 73.0234 53.8984C72.8828 54.3438 72.7656 54.8125 72.6719 55.3047C72.5781 55.7734 72.4844 56.2422 72.3906 56.7109C72.2969 57.1797 72.1914 57.6133 72.0742 58.0117C72.0273 58.1523 71.9688 58.2812 71.8984 58.3984C71.8281 58.5156 71.7695 58.6445 71.7227 58.7852C71.582 59.1836 71.5117 59.6172 71.5117 60.0859C71.5352 60.5547 71.5234 61 71.4766 61.4219C71.4062 62.0078 71.3125 62.5938 71.1953 63.1797C71.1016 63.7422 71.0547 64.3281 71.0547 64.9375C71.0547 65.5469 71.125 66.1328 71.2656 66.6953C71.4297 67.2344 71.6992 67.75 72.0742 68.2422C72.2148 68.1953 72.3203 68.1719 72.3906 68.1719C72.5312 68.1719 72.6719 68.2188 72.8125 68.3125C72.9531 68.3828 73.0938 68.4414 73.2344 68.4883C73.6562 68.3945 74.0547 68.3125 74.4297 68.2422C74.8047 68.1484 75.1562 67.9375 75.4844 67.6094C75.5312 67.6094 75.5898 67.6211 75.6602 67.6445C75.7539 67.6445 75.8242 67.6445 75.8711 67.6445C76.1523 67.6445 76.3867 67.5859 76.5742 67.4688C76.7852 67.3281 76.9961 67.1875 77.207 67.0469C77.418 66.9062 77.6406 66.7773 77.875 66.6602C78.1328 66.543 78.4375 66.4844 78.7891 66.4844C78.9766 66.25 79.1758 66.0625 79.3867 65.9219C79.6211 65.7812 79.832 65.5938 80.0195 65.3594C80.1133 64.75 80.2188 64.0703 80.3359 63.3203C80.4531 62.5703 80.6875 61.9375 81.0391 61.4219C81.0156 61.3047 81.0039 61.1875 81.0039 61.0703V60.7188C81.0039 59.7812 81.1094 58.8672 81.3203 57.9766C81.5547 57.0625 81.6602 56.1484 81.6367 55.2344C81.8242 55.0703 81.9648 54.8711 82.0586 54.6367C82.1758 54.4023 82.2695 54.1562 82.3398 53.8984C82.4102 53.6406 82.4805 53.3945 82.5508 53.1602C82.6445 52.9023 82.7617 52.668 82.9023 52.457C82.8555 52.3398 82.832 52.2109 82.832 52.0703C82.832 51.9062 82.7734 51.7891 82.6562 51.7188C82.7031 51.5547 82.7969 51.3672 82.9375 51.1562C83.0781 50.9453 83.1484 50.7578 83.1484 50.5938C83.1484 50.4766 83.1367 50.3594 83.1133 50.2422C83.1133 50.125 83.1133 50.0078 83.1133 49.8906C83.1133 49.6328 83.1484 49.3984 83.2188 49.1875C83.3125 48.9766 83.4297 48.7773 83.5703 48.5898C83.5 48.3555 83.4648 48.1094 83.4648 47.8516C83.4648 47.2891 83.5703 46.75 83.7812 46.2344C83.9922 45.7188 84.0977 45.1797 84.0977 44.6172V44.4062C84.0977 44.3125 84.0859 44.2305 84.0625 44.1602C84.2266 43.832 84.3555 43.5508 84.4492 43.3164C84.543 43.082 84.5781 42.7773 84.5547 42.4023C84.7188 42.332 84.8828 42.2969 85.0469 42.2969C85.4219 42.2969 85.8086 42.4141 86.207 42.6484C86.6289 42.8828 87.0391 43.0469 87.4375 43.1406ZM119.887 65.3594C119.887 65.8984 119.816 66.4023 119.676 66.8711C119.535 67.3164 119.383 67.7969 119.219 68.3125L119.043 68.875C118.879 69.1797 118.645 69.4961 118.34 69.8242C118.059 70.1523 117.801 70.4453 117.566 70.7031C117.027 71.3125 116.488 71.9336 115.949 72.5664C115.41 73.1758 114.93 73.832 114.508 74.5352H114.438C114.367 74.5352 114.297 74.5586 114.227 74.6055C114.18 74.6523 114.133 74.7109 114.086 74.7812C114.039 74.8281 113.992 74.875 113.945 74.9219C113.898 74.9453 113.828 74.9453 113.734 74.9219C113.57 75.3203 113.301 75.625 112.926 75.8359C112.574 76.0234 112.258 76.2578 111.977 76.5391C111.953 76.7266 111.906 76.8906 111.836 77.0312C111.766 77.1484 111.73 77.2891 111.73 77.4531C110.887 77.9453 110.09 78.5078 109.34 79.1406C108.613 79.7969 107.898 80.4414 107.195 81.0742C106.75 81.1914 106.387 81.3789 106.105 81.6367C105.848 81.8945 105.578 82.1758 105.297 82.4805C104.688 82.7852 104.078 83.1133 103.469 83.4648C102.883 83.8164 102.355 84.25 101.887 84.7656C101.348 84.9062 100.832 85.1289 100.34 85.4336C99.8711 85.7383 99.3906 86.043 98.8984 86.3477C98.7578 86.4414 98.6055 86.5117 98.4414 86.5586C98.3008 86.6289 98.1484 86.6992 97.9844 86.7695C97.8203 86.8398 97.7383 86.957 97.7383 87.1211H97.5977C97.4102 87.1211 97.2695 87.1797 97.1758 87.2969C97.1055 87.4141 96.9531 87.4609 96.7188 87.4375C96.4609 87.6953 96.168 87.8945 95.8398 88.0352L94.8555 88.4922C94.5273 88.6562 94.1992 88.8203 93.8711 88.9844C93.5664 89.1719 93.2969 89.4062 93.0625 89.6875C92.6641 89.7344 92.3008 89.8516 91.9727 90.0391C91.668 90.2266 91.3164 90.3203 90.918 90.3203H90.7773C90.6367 90.1562 90.4727 90.0039 90.2852 89.8633C90.1211 89.7461 89.957 89.6172 89.793 89.4766C89.6523 89.3594 89.5234 89.207 89.4062 89.0195C89.3125 88.8555 89.2656 88.6328 89.2656 88.3516V88.1758C90.3672 87.7305 91.293 87.0977 92.043 86.2773C92.0898 86.2773 92.125 86.2656 92.1484 86.2422C92.1719 86.2422 92.207 86.2422 92.2539 86.2422C92.3711 86.2422 92.4766 86.2539 92.5703 86.2773C92.6641 86.3242 92.7578 86.3477 92.8516 86.3477C92.8984 86.3477 92.9688 86.3242 93.0625 86.2773C93.5781 86.1133 94.0703 85.8906 94.5391 85.6094C95.0312 85.3281 95.5 85.0352 95.9453 84.7305C96.4141 84.4492 96.8828 84.168 97.3516 83.8867C97.8203 83.6289 98.3125 83.418 98.8281 83.2539C99.5781 82.6445 100.352 82.0586 101.148 81.4961C101.945 80.9336 102.789 80.4297 103.68 79.9844C103.75 79.7969 103.832 79.6445 103.926 79.5273C104.043 79.4336 104.078 79.2812 104.031 79.0703C104.078 79.0938 104.137 79.1055 104.207 79.1055C104.395 79.1055 104.547 79.0586 104.664 78.9648C105.039 78.707 105.391 78.4375 105.719 78.1562C106.07 77.8516 106.41 77.5586 106.738 77.2773C107.441 76.668 108.156 76.0469 108.883 75.4141C109.609 74.7812 110.348 74.1953 111.098 73.6562C111.145 73.4219 111.238 73.2461 111.379 73.1289C111.52 72.9883 111.59 72.7891 111.59 72.5312C111.895 72.4141 112.129 72.2266 112.293 71.9688C112.48 71.6875 112.75 71.5 113.102 71.4062C113.289 71.0312 113.488 70.6797 113.699 70.3516C113.91 70.0234 114.215 69.7891 114.613 69.6484C114.754 69.2734 114.906 68.9336 115.07 68.6289C115.258 68.3242 115.422 68.0312 115.562 67.75C115.727 67.4453 115.867 67.1289 115.984 66.8008C116.102 66.4727 116.16 66.0742 116.16 65.6055C116.16 65.0898 115.996 64.7383 115.668 64.5508C115.34 64.3398 114.953 64.1992 114.508 64.1289C114.062 64.0586 113.594 64 113.102 63.9531C112.633 63.9062 112.258 63.7891 111.977 63.6016C111.836 63.625 111.777 63.7188 111.801 63.8828C111.848 64.0469 111.824 64.1523 111.73 64.1992H111.379C111.074 64.1992 110.77 64.2461 110.465 64.3398L109.586 64.5859C109.305 64.6562 109.012 64.7266 108.707 64.7969C108.402 64.8672 108.098 64.8906 107.793 64.8672C107.348 65.1016 106.949 65.3125 106.598 65.5C106.27 65.6875 105.93 65.8633 105.578 66.0273C105.25 66.1914 104.887 66.3438 104.488 66.4844C104.113 66.625 103.668 66.7539 103.152 66.8711C102.895 66.918 102.73 67 102.66 67.1172C102.59 67.2344 102.461 67.3516 102.273 67.4688C102.156 67.3984 102.051 67.3164 101.957 67.2227C101.863 67.1055 101.758 67.0234 101.641 66.9766C101.523 67 101.418 67.0703 101.324 67.1875C101.254 67.2812 101.184 67.3867 101.113 67.5039C101.043 67.5977 100.973 67.6914 100.902 67.7852C100.832 67.8555 100.75 67.8906 100.656 67.8906C100.445 67.8906 100.246 67.832 100.059 67.7148C99.8945 67.5742 99.7422 67.4219 99.6016 67.2578C99.4609 67.0938 99.3203 66.9297 99.1797 66.7656C99.0391 66.5781 98.8867 66.4492 98.7227 66.3789C98.8164 66.1445 98.8633 65.9102 98.8633 65.6758C98.8633 65.418 98.8516 65.1836 98.8281 64.9727C99.1094 64.668 99.3672 64.3633 99.6016 64.0586C99.8359 63.7539 100.129 63.5195 100.48 63.3555C101.113 62.6055 101.699 61.9023 102.238 61.2461C102.777 60.5664 103.246 59.875 103.645 59.1719C104.066 58.4453 104.406 57.6836 104.664 56.8867C104.945 56.0664 105.121 55.1406 105.191 54.1094C105.191 53.9453 105.227 53.8164 105.297 53.7227C105.391 53.6289 105.438 53.5117 105.438 53.3711C105.438 53.1367 105.391 52.9375 105.297 52.7734C105.227 52.6094 105.133 52.4688 105.016 52.3516C104.922 52.2109 104.828 52.0703 104.734 51.9297C104.664 51.7891 104.641 51.6016 104.664 51.3672C104.289 51.0391 103.867 50.875 103.398 50.875C103.211 50.875 103 50.9219 102.766 51.0156C102.531 51.1094 102.285 51.2148 102.027 51.332C101.793 51.4492 101.559 51.5898 101.324 51.7539C101.09 51.8945 100.902 52.0117 100.762 52.1055C100.621 52.1992 100.48 52.3047 100.34 52.4219C100.223 52.5156 100.105 52.6094 99.9883 52.7031C99.4492 53.1719 98.9219 53.6289 98.4062 54.0742C97.9141 54.5195 97.4336 54.9883 96.9648 55.4805V56.1484C96.7539 56.1953 96.5781 56.2891 96.4375 56.4297C96.3203 56.5703 96.2266 56.7461 96.1562 56.957C96.0859 57.1445 96.0273 57.3555 95.9805 57.5898C95.9336 57.8008 95.875 57.9883 95.8047 58.1523L95.8398 58.2578V58.3281C95.8398 58.3516 95.8164 58.3633 95.7695 58.3633C95.7461 58.3633 95.7109 58.3516 95.6641 58.3281C95.6172 58.2812 95.5703 58.2578 95.5234 58.2578H95.4531C95.2656 58.7969 94.9492 59.207 94.5039 59.4883C94.082 59.7695 93.6484 60.0391 93.2031 60.2969C92.7578 60.1797 92.3477 60.0039 91.9727 59.7695C91.6211 59.5352 91.2695 59.2891 90.918 59.0312C90.7539 58.7031 90.6719 58.3281 90.6719 57.9062C90.6719 57.4844 90.7305 57.0859 90.8477 56.7109C90.9648 56.3125 91.0703 55.9023 91.1641 55.4805C91.5156 55.1992 91.8086 54.8711 92.043 54.4961C92.2773 54.1211 92.5117 53.7461 92.7461 53.3711C93.0039 52.9961 93.2734 52.6562 93.5547 52.3516C93.8594 52.0234 94.2461 51.7773 94.7148 51.6133C94.9492 51.2383 95.2422 50.9102 95.5938 50.6289C95.9453 50.3242 96.3086 50.0547 96.6836 49.8203C97.082 49.5625 97.4688 49.3047 97.8438 49.0469C98.2188 48.7891 98.5469 48.4961 98.8281 48.168H99.4961C99.5664 47.9336 99.707 47.7695 99.918 47.6758C100.129 47.5586 100.34 47.4648 100.551 47.3945C100.785 47.3008 100.996 47.1953 101.184 47.0781C101.371 46.9375 101.477 46.7148 101.5 46.4102C101.594 46.3867 101.641 46.4336 101.641 46.5508C101.852 46.4805 102.086 46.4453 102.344 46.4453C102.648 46.4453 102.941 46.4805 103.223 46.5508C103.527 46.6211 103.82 46.6562 104.102 46.6562C104.336 46.6562 104.559 46.6211 104.77 46.5508C104.793 46.6914 104.852 46.7969 104.945 46.8672C105.062 46.9141 105.191 46.9609 105.332 47.0078C105.496 47.0312 105.648 47.0547 105.789 47.0781C105.953 47.0781 106.082 47.1133 106.176 47.1836C106.152 47.418 106.223 47.5586 106.387 47.6055C106.574 47.6289 106.715 47.6992 106.809 47.8164C106.902 47.9336 106.949 48.0742 106.949 48.2383C106.973 48.4023 107.055 48.5547 107.195 48.6953L107.582 49.1172C107.723 49.2344 107.852 49.375 107.969 49.5391C108.391 50.125 108.719 50.8516 108.953 51.7188C109.188 52.5859 109.305 53.3828 109.305 54.1094C109.305 54.1562 109.281 54.2969 109.234 54.5312C109.188 54.7422 109.152 54.8711 109.129 54.918C108.871 56.1133 108.496 57.2383 108.004 58.293C107.512 59.3242 106.984 60.3672 106.422 61.4219C106.562 61.4453 106.691 61.4688 106.809 61.4922C106.949 61.4922 107.078 61.4922 107.195 61.4922C107.711 61.4922 108.18 61.4219 108.602 61.2812C109.047 61.1406 109.504 60.9766 109.973 60.7891C110.207 60.8594 110.465 60.8945 110.746 60.8945C111.145 60.8945 111.52 60.8594 111.871 60.7891C112.246 60.7188 112.633 60.6836 113.031 60.6836C113.242 60.6836 113.441 60.7305 113.629 60.8242C113.84 60.918 114.074 60.9648 114.332 60.9648C114.566 60.9648 114.742 60.9531 114.859 60.9297C115.234 61.1172 115.633 61.3047 116.055 61.4922C116.5 61.6797 116.922 61.8789 117.32 62.0898C117.742 62.3008 118.129 62.5469 118.48 62.8281C118.855 63.0859 119.184 63.3906 119.465 63.7422C119.512 63.7891 119.57 63.8711 119.641 63.9883C119.711 64.082 119.758 64.1523 119.781 64.1992C119.828 64.293 119.852 64.4805 119.852 64.7617C119.875 65.043 119.887 65.2422 119.887 65.3594Z" fill="white"/>
</svg>
