<svg width="317" height="134" viewBox="0 0 317 134" fill="none" xmlns="http://www.w3.org/2000/svg">
<ellipse cx="66.8568" cy="67" rx="66.8568" ry="67" fill="#2895A9"/>
<circle cx="67" cy="68" r="50" fill="#1A1A1A"/>
<path d="M94.0527 67.074L51.4721 100.4L51.6461 33.5257L94.0527 67.074Z" fill="#A93C28"/>
<path d="M88.8125 66.1328C88.625 66.5078 88.3672 66.8008 88.0391 67.0117C87.7109 67.2227 87.418 67.4922 87.1602 67.8203C86.7852 67.7969 86.4219 67.75 86.0703 67.6797C85.7422 67.6094 85.3906 67.5742 85.0156 67.5742C84.7578 67.5742 84.4883 67.6211 84.207 67.7148C83.9258 67.7852 83.6914 67.9492 83.5039 68.207C82.5664 68.0195 81.6172 67.9258 80.6562 67.9258C79.7188 67.9023 78.7812 67.8672 77.8438 67.8203C77.3047 68.1484 76.7188 68.3359 76.0859 68.3828C75.4766 68.4297 74.8789 68.5352 74.293 68.6992C74.1992 69.2383 74.1055 69.7891 74.0117 70.3516C73.918 70.8906 73.8711 71.4297 73.8711 71.9688C73.8711 72.3438 73.918 72.7422 74.0117 73.1641C74.1055 73.5859 74.3164 73.9023 74.6445 74.1133C74.6211 74.8164 74.6211 75.4492 74.6445 76.0117C74.668 76.5742 74.5508 77.1953 74.293 77.875C74.1758 77.8281 74.0586 77.7812 73.9414 77.7344C73.8477 77.6875 73.7422 77.6641 73.625 77.6641C73.4141 77.6641 73.2266 77.7461 73.0625 77.9102C72.8984 78.0508 72.7461 78.2266 72.6055 78.4375C72.4648 78.625 72.3125 78.8125 72.1484 79C72.0078 79.1875 71.832 79.3164 71.6211 79.3867C71.1055 79.2461 70.6016 79 70.1094 78.6484C70.0391 78.3203 69.9688 78.0039 69.8984 77.6992C69.8516 77.3711 69.8281 77.043 69.8281 76.7148C69.8281 76.3398 69.8867 75.9414 70.0039 75.5195C69.8633 75.168 69.7578 74.8164 69.6875 74.4648C69.6406 74.1133 69.6172 73.75 69.6172 73.375C69.6172 72.8828 69.6523 72.3906 69.7227 71.8984C69.793 71.3828 69.8281 70.8555 69.8281 70.3164C69.8281 70.0586 69.8164 69.8125 69.793 69.5781C69.7695 69.3203 69.7109 69.0625 69.6172 68.8047C69.1953 68.8516 68.7734 68.875 68.3516 68.875C67.9531 68.875 67.543 68.8867 67.1211 68.9102C66.7227 68.9336 66.3242 68.9922 65.9258 69.0859C65.5273 69.1562 65.1289 69.2852 64.7305 69.4727C64.4727 69.3086 64.168 69.2266 63.8164 69.2266C63.6055 69.2266 63.3945 69.25 63.1836 69.2969C62.9727 69.3438 62.75 69.3672 62.5156 69.3672C62.2578 69.3672 61.9883 69.3086 61.707 69.1914C61.4023 68.582 61.0273 68.043 60.582 67.5742C60.1602 67.082 59.8086 66.5312 59.5273 65.9219C60.582 65.7812 61.625 65.6875 62.6562 65.6406C63.6875 65.5938 64.7305 65.5469 65.7852 65.5C65.9727 65.5 66.207 65.5 66.4883 65.5C66.7695 65.4766 67.0508 65.4648 67.332 65.4648C67.6367 65.4648 67.9297 65.4648 68.2109 65.4648C68.4922 65.4414 68.7148 65.418 68.8789 65.3945C69.0664 65.3477 69.207 65.2539 69.3008 65.1133C69.3945 64.9492 69.5469 64.8438 69.7578 64.7969C69.6875 64.2109 69.6289 63.5664 69.582 62.8633C69.5352 62.1602 69.4883 61.457 69.4414 60.7539C69.3945 60.0273 69.3242 59.3242 69.2305 58.6445C69.1367 57.9648 68.9844 57.3555 68.7734 56.8164C68.8203 56.5586 68.8906 56.3125 68.9844 56.0781C69.1016 55.8438 69.1953 55.5859 69.2656 55.3047C69.4531 55.2812 69.6289 55.2227 69.793 55.1289C69.9805 55.0352 70.1797 54.9883 70.3906 54.9883C70.5078 54.9883 70.6953 55.0469 70.9531 55.1641C71.2344 55.2578 71.5156 55.375 71.7969 55.5156C72.1016 55.6562 72.3828 55.8086 72.6406 55.9727C72.8984 56.1133 73.0625 56.2305 73.1328 56.3242V56.5C73.1328 56.8984 73.168 57.2734 73.2383 57.625C73.332 57.9531 73.4375 58.293 73.5547 58.6445L73.6953 58.9961C73.7422 59.1133 73.7773 59.2305 73.8008 59.3477C73.8242 59.4648 73.8359 59.5938 73.8359 59.7344V60.0859C73.8359 60.5547 73.8008 61.0234 73.7305 61.4922C73.6836 61.9375 73.6602 62.3828 73.6602 62.8281C73.6602 63.0625 73.6719 63.3789 73.6953 63.7773C73.7422 64.1758 73.8125 64.457 73.9062 64.6211C73.9531 64.7617 74.0352 64.8555 74.1523 64.9023C74.293 64.9258 74.375 65.0078 74.3984 65.1484C75.1016 64.9609 75.8516 64.8789 76.6484 64.9023C77.4453 64.9258 78.207 64.9141 78.9336 64.8672L79.4961 64.7969C79.6836 64.7734 79.8711 64.7383 80.0586 64.6914C80.1758 64.668 80.3047 64.6328 80.4453 64.5859C80.6094 64.5391 80.75 64.5156 80.8672 64.5156C81.5 64.5156 82.1328 64.5859 82.7656 64.7266C83.3984 64.8438 84.0547 64.9023 84.7344 64.9023C85.3906 64.9023 85.9883 64.8086 86.5273 64.6211C86.9258 64.8086 87.3477 65.0078 87.793 65.2188C88.2617 65.4297 88.6016 65.7344 88.8125 66.1328ZM128.398 78.8242C128.258 79.0117 128.082 79.1406 127.871 79.2109C127.66 79.2812 127.449 79.3398 127.238 79.3867C127.027 79.4336 126.805 79.4805 126.57 79.5273C126.359 79.5977 126.172 79.7031 126.008 79.8438C125.961 79.8672 125.926 79.8906 125.902 79.9141C125.902 79.9375 125.879 79.9492 125.832 79.9492C125.762 79.9492 125.691 79.8906 125.621 79.7734C125.574 79.6797 125.492 79.6094 125.375 79.5625C124.766 79.8906 124.109 80.1719 123.406 80.4062C122.703 80.6641 122 80.9219 121.297 81.1797C120.617 81.4609 119.949 81.7539 119.293 82.0586C118.637 82.3867 118.062 82.7852 117.57 83.2539C117.195 83.3008 116.809 83.3828 116.41 83.5C116.035 83.6406 115.754 83.8984 115.566 84.2734H115.461C115.367 84.2734 115.297 84.2383 115.25 84.168C115.203 84.1211 115.133 84.0977 115.039 84.0977C114.875 84.0977 114.77 84.1445 114.723 84.2383C114.676 84.332 114.641 84.4258 114.617 84.5195C114.617 84.6367 114.605 84.7422 114.582 84.8359C114.559 84.9297 114.488 84.9766 114.371 84.9766C114.324 84.9766 114.277 84.9297 114.23 84.8359C114.184 84.7656 114.066 84.7422 113.879 84.7656C113.012 85.2344 112.109 85.7031 111.172 86.1719C110.234 86.6641 109.426 87.2852 108.746 88.0352C108.699 87.9883 108.641 87.9648 108.57 87.9648C108.523 87.9648 108.488 87.9648 108.465 87.9648L108.43 88C108.383 88 108.348 87.9883 108.324 87.9648C108.301 87.9414 108.277 87.9297 108.254 87.9297C107.715 88.3984 107.141 88.8203 106.531 89.1953C105.945 89.5938 105.348 89.9805 104.738 90.3555C104.129 90.7305 103.531 91.1055 102.945 91.4805C102.359 91.8789 101.809 92.3242 101.293 92.8164C100.965 92.8398 100.637 92.9102 100.309 93.0273C99.9805 93.1445 99.6523 93.2617 99.3242 93.3789C99.0195 93.4961 98.7031 93.6016 98.375 93.6953C98.0469 93.8125 97.7188 93.8711 97.3906 93.8711C96.7812 93.8711 96.2773 93.6016 95.8789 93.0625C95.8086 93.1094 95.7383 93.1445 95.668 93.168C95.6211 93.1914 95.5625 93.2031 95.4922 93.2031C95.3047 93.2031 95.1289 93.1211 94.9648 92.957C94.8242 92.8164 94.625 92.7695 94.3672 92.8164C94.0625 92.4883 93.8398 92.0664 93.6992 91.5508C93.582 91.0586 93.4297 90.6016 93.2422 90.1797C93.2891 89.2656 93.4414 88.375 93.6992 87.5078C93.9805 86.6641 94.1562 85.7852 94.2266 84.8711C94.4375 84.6602 94.6016 84.4141 94.7188 84.1328C94.8359 83.875 94.9414 83.5938 95.0352 83.2891C95.1523 83.0078 95.2695 82.7266 95.3867 82.4453C95.5039 82.1641 95.668 81.9297 95.8789 81.7422C96.0195 81.0391 96.2539 80.3711 96.582 79.7383C96.9102 79.1055 97.1328 78.4258 97.25 77.6992C97.4375 77.582 97.5898 77.4414 97.707 77.2773C97.8477 77.1133 98 76.9609 98.1641 76.8203V76.6094C98.1641 76.4219 98.1172 76.2812 98.0234 76.1875C98.1875 75.7656 98.3633 75.3672 98.5508 74.9922C98.7617 74.6172 98.9609 74.2422 99.1484 73.8672C99.3359 73.4922 99.5 73.1055 99.6406 72.707C99.7812 72.3086 99.875 71.875 99.9219 71.4062C100.109 71.2422 100.25 71.043 100.344 70.8086C100.438 70.5508 100.52 70.3047 100.59 70.0703C100.684 69.8125 100.777 69.5781 100.871 69.3672C100.988 69.1562 101.176 68.9922 101.434 68.875C101.41 68.8281 101.398 68.7695 101.398 68.6992C101.398 68.4648 101.457 68.2539 101.574 68.0664C101.715 67.8789 101.785 67.6797 101.785 67.4688C101.785 67.3516 101.75 67.2344 101.68 67.1172C102.148 66.1328 102.605 65.1719 103.051 64.2344C103.496 63.2734 103.836 62.2539 104.07 61.1758C104.305 61.0586 104.445 60.8828 104.492 60.6484C104.539 60.4141 104.645 60.2031 104.809 60.0156V59.8398C104.809 59.4414 104.891 58.9961 105.055 58.5039C105.242 58.0117 105.465 57.6016 105.723 57.2734C105.84 56.4531 105.969 55.5977 106.109 54.707C106.273 53.793 106.52 52.9609 106.848 52.2109C106.801 52.0469 106.73 51.8828 106.637 51.7188C106.566 51.5547 106.508 51.3789 106.461 51.1914C105.875 51.5195 105.207 51.8125 104.457 52.0703C104.316 52.1172 104.164 52.1641 104 52.2109C103.836 52.2344 103.695 52.2812 103.578 52.3516C103.438 52.3984 103.355 52.5156 103.332 52.7031C103.309 52.8672 103.297 53.0078 103.297 53.125C103.016 53.125 102.793 53.1836 102.629 53.3008C102.465 53.418 102.301 53.5586 102.137 53.7227C101.996 53.8633 101.844 54.0039 101.68 54.1445C101.516 54.2617 101.305 54.3438 101.047 54.3906C100.766 54.6719 100.531 54.8945 100.344 55.0586C100.156 55.1992 99.8867 55.3398 99.5352 55.4805C99.418 55.5273 99.3008 55.6211 99.1836 55.7617L98.832 56.1836C98.7148 56.3242 98.5977 56.4414 98.4805 56.5352C98.3867 56.6289 98.2812 56.6641 98.1641 56.6406C98.0938 56.8516 97.9883 57.0273 97.8477 57.168C97.7305 57.3086 97.6016 57.4492 97.4609 57.5898C97.3203 57.707 97.2031 57.8477 97.1094 58.0117C97.0156 58.1758 96.9805 58.3867 97.0039 58.6445C96.9102 58.7383 96.8281 58.7852 96.7578 58.7852C96.6875 58.7852 96.6055 58.7383 96.5117 58.6445C96.4648 58.9258 96.3711 59.1602 96.2305 59.3477C96.1133 59.5117 95.9727 59.6641 95.8086 59.8047C95.6445 59.9453 95.4688 60.0859 95.2812 60.2266C95.0938 60.3672 94.918 60.5195 94.7539 60.6836C94.543 60.6602 94.3555 60.6133 94.1914 60.543C94.0508 60.4727 93.8984 60.4023 93.7344 60.332C93.5703 60.2617 93.3945 60.2148 93.207 60.1914C93.043 60.1445 92.832 60.1328 92.5742 60.1562C92.5977 60.0156 92.5742 59.9102 92.5039 59.8398C92.4336 59.7695 92.3398 59.7109 92.2227 59.6641C92.2227 59.4766 92.2227 59.2422 92.2227 58.9609C92.2461 58.6797 92.2578 58.3984 92.2578 58.1172C92.2812 57.8125 92.3164 57.5312 92.3633 57.2734C92.4102 57.0156 92.4805 56.8047 92.5742 56.6406C92.7148 56.4062 92.9375 56.1953 93.2422 56.0078C93.5703 55.8203 93.9102 55.6328 94.2617 55.4453C94.6367 55.2344 94.9883 55.0234 95.3164 54.8125C95.668 54.5781 95.9492 54.2969 96.1602 53.9688C96.1836 53.9922 96.2305 54.0039 96.3008 54.0039C96.4883 54.0039 96.6406 53.957 96.7578 53.8633C96.875 53.6523 97.0273 53.5 97.2148 53.4062C97.4258 53.3125 97.6133 53.1719 97.7773 52.9844C97.8477 52.9141 97.8828 52.832 97.8828 52.7383C97.9062 52.6211 97.9531 52.5273 98.0234 52.457C98.0938 52.3867 98.2227 52.3164 98.4102 52.2461C98.6211 52.1758 98.7852 52.082 98.9023 51.9648C99.043 51.8477 99.1484 51.7188 99.2188 51.5781C99.3125 51.4375 99.418 51.3086 99.5352 51.1914C99.7227 51.0508 99.9219 50.9453 100.133 50.875C100.367 50.8047 100.59 50.7109 100.801 50.5938C101.012 50.4531 101.199 50.2891 101.363 50.1016C101.551 49.9141 101.691 49.6914 101.785 49.4336C102.254 49.2227 102.711 49.0117 103.156 48.8008C103.602 48.5664 104.035 48.3203 104.457 48.0625C104.691 47.9219 104.914 47.7695 105.125 47.6055C105.336 47.418 105.547 47.2422 105.758 47.0781C105.992 46.9141 106.227 46.7734 106.461 46.6562C106.719 46.5391 106.988 46.4805 107.27 46.4805C107.621 46.4805 107.891 46.5508 108.078 46.6914C108.266 46.8086 108.43 46.9492 108.57 47.1133C108.734 47.2539 108.898 47.4062 109.062 47.5703C109.25 47.7344 109.484 47.8516 109.766 47.9219C110 48.2969 110.152 48.707 110.223 49.1523C110.316 49.5742 110.375 50.0195 110.398 50.4883C110.422 50.9336 110.422 51.3789 110.398 51.8242C110.398 52.2695 110.434 52.7031 110.504 53.125C110.363 53.5234 110.199 53.9102 110.012 54.2852C109.824 54.6602 109.73 55.0586 109.73 55.4805C109.73 55.6445 109.742 55.7852 109.766 55.9023H109.344C109.25 56.6758 109.074 57.4375 108.816 58.1875C108.559 58.9141 108.266 59.6406 107.938 60.3672L106.988 62.5117C106.684 63.2148 106.426 63.9414 106.215 64.6914C106.168 64.9023 106.086 65.0312 105.969 65.0781C105.852 65.1016 105.77 65.1953 105.723 65.3594C105.605 65.6172 105.512 65.8984 105.441 66.2031C105.371 66.5078 105.277 66.8008 105.16 67.082C104.926 67.6914 104.691 68.2773 104.457 68.8398C104.223 69.4023 103.977 69.9531 103.719 70.4922V70.8438C103.719 70.9609 103.754 71.0195 103.824 71.0195C103.074 72.0508 102.57 73.2227 102.312 74.5352C102.125 74.6758 101.984 74.8516 101.891 75.0625C101.82 75.25 101.703 75.4141 101.539 75.5547C101.375 76.2344 101.152 76.9023 100.871 77.5586C100.613 78.1914 100.344 78.8242 100.062 79.457C99.7812 80.0898 99.5117 80.7227 99.2539 81.3555C98.9961 82.0117 98.7969 82.6797 98.6562 83.3594C98.3984 83.5938 98.1875 83.875 98.0234 84.2031C97.8828 84.5312 97.7539 84.8828 97.6367 85.2578C97.543 85.6328 97.4492 86.0078 97.3555 86.3828C97.2852 86.7578 97.2031 87.0977 97.1094 87.4023L96.7578 88.668V89.3711C96.7578 89.4883 96.7461 89.6172 96.7227 89.7578C96.6992 89.8984 96.6289 89.9922 96.5117 90.0391C96.5586 90.2031 96.6172 90.332 96.6875 90.4258C96.7812 90.5195 96.8047 90.6484 96.7578 90.8125C96.8516 91 97.0156 91.1055 97.25 91.1289C97.5078 91.1758 97.7305 91.2344 97.918 91.3047C98.1055 91.2578 98.2109 91.1523 98.2344 90.9883C98.2578 90.8242 98.3164 90.6836 98.4102 90.5664C98.6211 90.2852 98.9375 89.9805 99.3594 89.6523C99.8047 89.3242 100.273 88.9844 100.766 88.6328C101.281 88.2812 101.773 87.9414 102.242 87.6133C102.734 87.3086 103.133 87.0273 103.438 86.7695H104.07C104.914 86.2305 105.758 85.7031 106.602 85.1875C107.445 84.6953 108.324 84.25 109.238 83.8516C109.473 83.5469 109.754 83.3125 110.082 83.1484C110.434 82.9844 110.785 82.8203 111.137 82.6562C111.512 82.5156 111.863 82.3633 112.191 82.1992C112.543 82.0352 112.824 81.8008 113.035 81.4961C113.293 81.4492 113.574 81.3906 113.879 81.3203C114.184 81.25 114.406 81.0859 114.547 80.8281H114.688C114.758 80.8281 114.828 80.8398 114.898 80.8633C114.969 80.9102 115.016 80.9805 115.039 81.0742C115.203 81.0273 115.297 80.9219 115.32 80.7578C115.367 80.5938 115.449 80.4531 115.566 80.3359C116.246 80.0781 116.938 79.8086 117.641 79.5273C118.344 79.2461 119.035 78.9297 119.715 78.5781C120.043 78.5781 120.406 78.5312 120.805 78.4375C121.227 78.3438 121.543 78.1328 121.754 77.8047C121.801 77.8281 121.859 77.8398 121.93 77.8398C122.188 77.8398 122.434 77.8047 122.668 77.7344C122.926 77.6406 123.184 77.5469 123.441 77.4531C123.699 77.3359 123.957 77.2305 124.215 77.1367C124.473 77.043 124.742 76.9844 125.023 76.9609H125.094C125.141 76.9609 125.152 76.9023 125.129 76.7852C125.129 76.6445 125.129 76.5625 125.129 76.5391C125.129 76.4453 125.176 76.4102 125.27 76.4336C125.34 76.4102 125.457 76.3984 125.621 76.3984C125.879 76.3984 126.113 76.457 126.324 76.5742C126.559 76.668 126.781 76.7852 126.992 76.9258C127.203 77.0664 127.414 77.2188 127.625 77.3828C127.836 77.5234 128.059 77.6289 128.293 77.6992C128.246 77.8867 128.223 78.0391 128.223 78.1562C128.223 78.2734 128.234 78.3906 128.258 78.5078C128.305 78.6016 128.352 78.707 128.398 78.8242ZM139.438 43.1406C139.367 44.6875 139.215 46.2344 138.98 47.7812C138.746 49.3047 138.477 50.8281 138.172 52.3516C137.891 53.875 137.609 55.3984 137.328 56.9219C137.047 58.4453 136.824 59.9805 136.66 61.5273C136.848 61.4805 136.977 61.457 137.047 61.457C137.305 61.457 137.621 61.5625 137.996 61.7734C138.371 61.9609 138.688 62.1016 138.945 62.1953V62.5117C138.945 62.6289 138.992 62.6875 139.086 62.6875V62.793C139.086 63.1211 139.004 63.3906 138.84 63.6016C138.699 63.7891 138.617 64.0352 138.594 64.3398C138.383 64.4805 138.16 64.6211 137.926 64.7617C137.691 64.8789 137.492 65.0312 137.328 65.2188C137.234 65.3359 137.176 65.4766 137.152 65.6406C137.129 65.8047 137.059 65.957 136.941 66.0977C136.824 66.2852 136.648 66.4375 136.414 66.5547C136.203 66.6484 136.039 66.7891 135.922 66.9766C135.828 67.1406 135.793 67.3281 135.816 67.5391C135.84 67.75 135.793 67.9492 135.676 68.1367C135.582 68.2539 135.465 68.3477 135.324 68.418C135.207 68.4883 135.113 68.5938 135.043 68.7344C134.926 68.9922 134.855 69.2969 134.832 69.6484C134.809 70 134.75 70.3281 134.656 70.6328C134.609 70.8906 134.539 71.125 134.445 71.3359C134.352 71.5469 134.305 71.7695 134.305 72.0039V72.2148C134.305 72.332 134.258 72.4023 134.164 72.4258C134.07 72.4258 133.988 72.4258 133.918 72.4258C133.777 74.1133 133.613 75.7891 133.426 77.4531C133.238 79.0938 133.145 80.7578 133.145 82.4453V83.7109C133.145 83.8516 133.203 83.9453 133.32 83.9922C133.461 84.0391 133.531 84.1445 133.531 84.3086C133.531 84.4023 133.52 84.4844 133.496 84.5547C133.496 84.6484 133.496 84.7422 133.496 84.8359C133.496 85.2344 133.578 85.6328 133.742 86.0312C133.906 86.4297 134.035 86.8281 134.129 87.2266L134.305 88.1758C134.352 88.3867 134.445 88.5859 134.586 88.7734C134.75 88.9844 134.914 89.1953 135.078 89.4062C135.242 89.6172 135.395 89.8516 135.535 90.1094C135.676 90.3906 135.77 90.707 135.816 91.0586C135.629 91.3398 135.336 91.5273 134.938 91.6211C134.539 91.7383 134.199 91.8906 133.918 92.0781C133.941 91.7734 133.883 91.5391 133.742 91.375C133.625 91.2344 133.473 91.1055 133.285 90.9883C133.121 90.8945 132.945 90.8008 132.758 90.707C132.57 90.6133 132.418 90.4844 132.301 90.3203C131.809 89.6172 131.398 88.832 131.07 87.9648C130.766 87.1211 130.52 86.2422 130.332 85.3281C130.145 84.4141 130.016 83.5 129.945 82.5859C129.875 81.6719 129.84 80.8047 129.84 79.9844V79C129.84 78.6953 129.852 78.3789 129.875 78.0508C129.898 77.6758 129.934 77.3125 129.98 76.9609C130.051 76.5859 130.062 76.1992 130.016 75.8008C130.344 74.9336 130.566 74.0078 130.684 73.0234C130.824 72.0156 130.941 71.0547 131.035 70.1406C130.449 70.2578 129.805 70.4805 129.102 70.8086C128.398 71.1367 127.812 71.5 127.344 71.8984C127.062 71.7344 126.781 71.6523 126.5 71.6523C126.055 71.6523 125.633 71.7461 125.234 71.9336C124.859 72.0977 124.449 72.1797 124.004 72.1797C123.84 72.1797 123.711 72.168 123.617 72.1445C123.523 72.1211 123.441 72.0859 123.371 72.0391C123.301 71.9922 123.219 71.9453 123.125 71.8984C123.055 71.8516 122.949 71.8047 122.809 71.7578C122.316 71.5938 121.883 71.418 121.508 71.2305C121.133 71.043 120.805 70.8203 120.523 70.5625C120.242 70.2812 119.996 69.9531 119.785 69.5781C119.598 69.2031 119.434 68.7461 119.293 68.207C119.246 67.9727 119.188 67.7148 119.117 67.4336C119.07 67.1523 119.047 66.8828 119.047 66.625C119.047 66.4375 119.094 66.1562 119.188 65.7812C119.281 65.4062 119.328 65.043 119.328 64.6914C119.328 64.5273 119.305 64.3516 119.258 64.1641C119.234 63.9766 119.164 63.8242 119.047 63.707C119.258 63.2852 119.41 62.8516 119.504 62.4062C119.621 61.9375 119.727 61.4688 119.82 61C119.914 60.5078 120.02 60.0391 120.137 59.5938C120.254 59.125 120.441 58.6797 120.699 58.2578C120.676 57.3906 120.734 56.6406 120.875 56.0078C121.016 55.3516 121.285 54.6367 121.684 53.8633V53.7578C121.684 53.3359 121.73 52.9727 121.824 52.668C121.918 52.3633 122.035 52.082 122.176 51.8242C122.316 51.543 122.469 51.2734 122.633 51.0156C122.797 50.7578 122.938 50.4531 123.055 50.1016C123.312 49.9141 123.582 49.7852 123.863 49.7148C124.168 49.6445 124.484 49.6094 124.812 49.6094C125.305 49.6094 125.785 49.6914 126.254 49.8555C126.371 50.043 126.477 50.2305 126.57 50.418C126.688 50.6055 126.746 50.8281 126.746 51.0859C126.746 51.2969 126.699 51.4727 126.605 51.6133C126.535 51.7539 126.43 51.8828 126.289 52C126.172 52.0938 126.043 52.1992 125.902 52.3164C125.785 52.4336 125.68 52.5625 125.586 52.7031C125.352 53.0547 125.164 53.4531 125.023 53.8984C124.883 54.3438 124.766 54.8125 124.672 55.3047C124.578 55.7734 124.484 56.2422 124.391 56.7109C124.297 57.1797 124.191 57.6133 124.074 58.0117C124.027 58.1523 123.969 58.2812 123.898 58.3984C123.828 58.5156 123.77 58.6445 123.723 58.7852C123.582 59.1836 123.512 59.6172 123.512 60.0859C123.535 60.5547 123.523 61 123.477 61.4219C123.406 62.0078 123.312 62.5938 123.195 63.1797C123.102 63.7422 123.055 64.3281 123.055 64.9375C123.055 65.5469 123.125 66.1328 123.266 66.6953C123.43 67.2344 123.699 67.75 124.074 68.2422C124.215 68.1953 124.32 68.1719 124.391 68.1719C124.531 68.1719 124.672 68.2188 124.812 68.3125C124.953 68.3828 125.094 68.4414 125.234 68.4883C125.656 68.3945 126.055 68.3125 126.43 68.2422C126.805 68.1484 127.156 67.9375 127.484 67.6094C127.531 67.6094 127.59 67.6211 127.66 67.6445C127.754 67.6445 127.824 67.6445 127.871 67.6445C128.152 67.6445 128.387 67.5859 128.574 67.4688C128.785 67.3281 128.996 67.1875 129.207 67.0469C129.418 66.9062 129.641 66.7773 129.875 66.6602C130.133 66.543 130.438 66.4844 130.789 66.4844C130.977 66.25 131.176 66.0625 131.387 65.9219C131.621 65.7812 131.832 65.5938 132.02 65.3594C132.113 64.75 132.219 64.0703 132.336 63.3203C132.453 62.5703 132.688 61.9375 133.039 61.4219C133.016 61.3047 133.004 61.1875 133.004 61.0703V60.7188C133.004 59.7812 133.109 58.8672 133.32 57.9766C133.555 57.0625 133.66 56.1484 133.637 55.2344C133.824 55.0703 133.965 54.8711 134.059 54.6367C134.176 54.4023 134.27 54.1562 134.34 53.8984C134.41 53.6406 134.48 53.3945 134.551 53.1602C134.645 52.9023 134.762 52.668 134.902 52.457C134.855 52.3398 134.832 52.2109 134.832 52.0703C134.832 51.9062 134.773 51.7891 134.656 51.7188C134.703 51.5547 134.797 51.3672 134.938 51.1562C135.078 50.9453 135.148 50.7578 135.148 50.5938C135.148 50.4766 135.137 50.3594 135.113 50.2422C135.113 50.125 135.113 50.0078 135.113 49.8906C135.113 49.6328 135.148 49.3984 135.219 49.1875C135.312 48.9766 135.43 48.7773 135.57 48.5898C135.5 48.3555 135.465 48.1094 135.465 47.8516C135.465 47.2891 135.57 46.75 135.781 46.2344C135.992 45.7188 136.098 45.1797 136.098 44.6172V44.4062C136.098 44.3125 136.086 44.2305 136.062 44.1602C136.227 43.832 136.355 43.5508 136.449 43.3164C136.543 43.082 136.578 42.7773 136.555 42.4023C136.719 42.332 136.883 42.2969 137.047 42.2969C137.422 42.2969 137.809 42.4141 138.207 42.6484C138.629 42.8828 139.039 43.0469 139.438 43.1406ZM171.887 65.3594C171.887 65.8984 171.816 66.4023 171.676 66.8711C171.535 67.3164 171.383 67.7969 171.219 68.3125L171.043 68.875C170.879 69.1797 170.645 69.4961 170.34 69.8242C170.059 70.1523 169.801 70.4453 169.566 70.7031C169.027 71.3125 168.488 71.9336 167.949 72.5664C167.41 73.1758 166.93 73.832 166.508 74.5352H166.438C166.367 74.5352 166.297 74.5586 166.227 74.6055C166.18 74.6523 166.133 74.7109 166.086 74.7812C166.039 74.8281 165.992 74.875 165.945 74.9219C165.898 74.9453 165.828 74.9453 165.734 74.9219C165.57 75.3203 165.301 75.625 164.926 75.8359C164.574 76.0234 164.258 76.2578 163.977 76.5391C163.953 76.7266 163.906 76.8906 163.836 77.0312C163.766 77.1484 163.73 77.2891 163.73 77.4531C162.887 77.9453 162.09 78.5078 161.34 79.1406C160.613 79.7969 159.898 80.4414 159.195 81.0742C158.75 81.1914 158.387 81.3789 158.105 81.6367C157.848 81.8945 157.578 82.1758 157.297 82.4805C156.688 82.7852 156.078 83.1133 155.469 83.4648C154.883 83.8164 154.355 84.25 153.887 84.7656C153.348 84.9062 152.832 85.1289 152.34 85.4336C151.871 85.7383 151.391 86.043 150.898 86.3477C150.758 86.4414 150.605 86.5117 150.441 86.5586C150.301 86.6289 150.148 86.6992 149.984 86.7695C149.82 86.8398 149.738 86.957 149.738 87.1211H149.598C149.41 87.1211 149.27 87.1797 149.176 87.2969C149.105 87.4141 148.953 87.4609 148.719 87.4375C148.461 87.6953 148.168 87.8945 147.84 88.0352L146.855 88.4922C146.527 88.6562 146.199 88.8203 145.871 88.9844C145.566 89.1719 145.297 89.4062 145.062 89.6875C144.664 89.7344 144.301 89.8516 143.973 90.0391C143.668 90.2266 143.316 90.3203 142.918 90.3203H142.777C142.637 90.1562 142.473 90.0039 142.285 89.8633C142.121 89.7461 141.957 89.6172 141.793 89.4766C141.652 89.3594 141.523 89.207 141.406 89.0195C141.312 88.8555 141.266 88.6328 141.266 88.3516V88.1758C142.367 87.7305 143.293 87.0977 144.043 86.2773C144.09 86.2773 144.125 86.2656 144.148 86.2422C144.172 86.2422 144.207 86.2422 144.254 86.2422C144.371 86.2422 144.477 86.2539 144.57 86.2773C144.664 86.3242 144.758 86.3477 144.852 86.3477C144.898 86.3477 144.969 86.3242 145.062 86.2773C145.578 86.1133 146.07 85.8906 146.539 85.6094C147.031 85.3281 147.5 85.0352 147.945 84.7305C148.414 84.4492 148.883 84.168 149.352 83.8867C149.82 83.6289 150.312 83.418 150.828 83.2539C151.578 82.6445 152.352 82.0586 153.148 81.4961C153.945 80.9336 154.789 80.4297 155.68 79.9844C155.75 79.7969 155.832 79.6445 155.926 79.5273C156.043 79.4336 156.078 79.2812 156.031 79.0703C156.078 79.0938 156.137 79.1055 156.207 79.1055C156.395 79.1055 156.547 79.0586 156.664 78.9648C157.039 78.707 157.391 78.4375 157.719 78.1562C158.07 77.8516 158.41 77.5586 158.738 77.2773C159.441 76.668 160.156 76.0469 160.883 75.4141C161.609 74.7812 162.348 74.1953 163.098 73.6562C163.145 73.4219 163.238 73.2461 163.379 73.1289C163.52 72.9883 163.59 72.7891 163.59 72.5312C163.895 72.4141 164.129 72.2266 164.293 71.9688C164.48 71.6875 164.75 71.5 165.102 71.4062C165.289 71.0312 165.488 70.6797 165.699 70.3516C165.91 70.0234 166.215 69.7891 166.613 69.6484C166.754 69.2734 166.906 68.9336 167.07 68.6289C167.258 68.3242 167.422 68.0312 167.562 67.75C167.727 67.4453 167.867 67.1289 167.984 66.8008C168.102 66.4727 168.16 66.0742 168.16 65.6055C168.16 65.0898 167.996 64.7383 167.668 64.5508C167.34 64.3398 166.953 64.1992 166.508 64.1289C166.062 64.0586 165.594 64 165.102 63.9531C164.633 63.9062 164.258 63.7891 163.977 63.6016C163.836 63.625 163.777 63.7188 163.801 63.8828C163.848 64.0469 163.824 64.1523 163.73 64.1992H163.379C163.074 64.1992 162.77 64.2461 162.465 64.3398L161.586 64.5859C161.305 64.6562 161.012 64.7266 160.707 64.7969C160.402 64.8672 160.098 64.8906 159.793 64.8672C159.348 65.1016 158.949 65.3125 158.598 65.5C158.27 65.6875 157.93 65.8633 157.578 66.0273C157.25 66.1914 156.887 66.3438 156.488 66.4844C156.113 66.625 155.668 66.7539 155.152 66.8711C154.895 66.918 154.73 67 154.66 67.1172C154.59 67.2344 154.461 67.3516 154.273 67.4688C154.156 67.3984 154.051 67.3164 153.957 67.2227C153.863 67.1055 153.758 67.0234 153.641 66.9766C153.523 67 153.418 67.0703 153.324 67.1875C153.254 67.2812 153.184 67.3867 153.113 67.5039C153.043 67.5977 152.973 67.6914 152.902 67.7852C152.832 67.8555 152.75 67.8906 152.656 67.8906C152.445 67.8906 152.246 67.832 152.059 67.7148C151.895 67.5742 151.742 67.4219 151.602 67.2578C151.461 67.0938 151.32 66.9297 151.18 66.7656C151.039 66.5781 150.887 66.4492 150.723 66.3789C150.816 66.1445 150.863 65.9102 150.863 65.6758C150.863 65.418 150.852 65.1836 150.828 64.9727C151.109 64.668 151.367 64.3633 151.602 64.0586C151.836 63.7539 152.129 63.5195 152.48 63.3555C153.113 62.6055 153.699 61.9023 154.238 61.2461C154.777 60.5664 155.246 59.875 155.645 59.1719C156.066 58.4453 156.406 57.6836 156.664 56.8867C156.945 56.0664 157.121 55.1406 157.191 54.1094C157.191 53.9453 157.227 53.8164 157.297 53.7227C157.391 53.6289 157.438 53.5117 157.438 53.3711C157.438 53.1367 157.391 52.9375 157.297 52.7734C157.227 52.6094 157.133 52.4688 157.016 52.3516C156.922 52.2109 156.828 52.0703 156.734 51.9297C156.664 51.7891 156.641 51.6016 156.664 51.3672C156.289 51.0391 155.867 50.875 155.398 50.875C155.211 50.875 155 50.9219 154.766 51.0156C154.531 51.1094 154.285 51.2148 154.027 51.332C153.793 51.4492 153.559 51.5898 153.324 51.7539C153.09 51.8945 152.902 52.0117 152.762 52.1055C152.621 52.1992 152.48 52.3047 152.34 52.4219C152.223 52.5156 152.105 52.6094 151.988 52.7031C151.449 53.1719 150.922 53.6289 150.406 54.0742C149.914 54.5195 149.434 54.9883 148.965 55.4805V56.1484C148.754 56.1953 148.578 56.2891 148.438 56.4297C148.32 56.5703 148.227 56.7461 148.156 56.957C148.086 57.1445 148.027 57.3555 147.98 57.5898C147.934 57.8008 147.875 57.9883 147.805 58.1523L147.84 58.2578V58.3281C147.84 58.3516 147.816 58.3633 147.77 58.3633C147.746 58.3633 147.711 58.3516 147.664 58.3281C147.617 58.2812 147.57 58.2578 147.523 58.2578H147.453C147.266 58.7969 146.949 59.207 146.504 59.4883C146.082 59.7695 145.648 60.0391 145.203 60.2969C144.758 60.1797 144.348 60.0039 143.973 59.7695C143.621 59.5352 143.27 59.2891 142.918 59.0312C142.754 58.7031 142.672 58.3281 142.672 57.9062C142.672 57.4844 142.73 57.0859 142.848 56.7109C142.965 56.3125 143.07 55.9023 143.164 55.4805C143.516 55.1992 143.809 54.8711 144.043 54.4961C144.277 54.1211 144.512 53.7461 144.746 53.3711C145.004 52.9961 145.273 52.6562 145.555 52.3516C145.859 52.0234 146.246 51.7773 146.715 51.6133C146.949 51.2383 147.242 50.9102 147.594 50.6289C147.945 50.3242 148.309 50.0547 148.684 49.8203C149.082 49.5625 149.469 49.3047 149.844 49.0469C150.219 48.7891 150.547 48.4961 150.828 48.168H151.496C151.566 47.9336 151.707 47.7695 151.918 47.6758C152.129 47.5586 152.34 47.4648 152.551 47.3945C152.785 47.3008 152.996 47.1953 153.184 47.0781C153.371 46.9375 153.477 46.7148 153.5 46.4102C153.594 46.3867 153.641 46.4336 153.641 46.5508C153.852 46.4805 154.086 46.4453 154.344 46.4453C154.648 46.4453 154.941 46.4805 155.223 46.5508C155.527 46.6211 155.82 46.6562 156.102 46.6562C156.336 46.6562 156.559 46.6211 156.77 46.5508C156.793 46.6914 156.852 46.7969 156.945 46.8672C157.062 46.9141 157.191 46.9609 157.332 47.0078C157.496 47.0312 157.648 47.0547 157.789 47.0781C157.953 47.0781 158.082 47.1133 158.176 47.1836C158.152 47.418 158.223 47.5586 158.387 47.6055C158.574 47.6289 158.715 47.6992 158.809 47.8164C158.902 47.9336 158.949 48.0742 158.949 48.2383C158.973 48.4023 159.055 48.5547 159.195 48.6953L159.582 49.1172C159.723 49.2344 159.852 49.375 159.969 49.5391C160.391 50.125 160.719 50.8516 160.953 51.7188C161.188 52.5859 161.305 53.3828 161.305 54.1094C161.305 54.1562 161.281 54.2969 161.234 54.5312C161.188 54.7422 161.152 54.8711 161.129 54.918C160.871 56.1133 160.496 57.2383 160.004 58.293C159.512 59.3242 158.984 60.3672 158.422 61.4219C158.562 61.4453 158.691 61.4688 158.809 61.4922C158.949 61.4922 159.078 61.4922 159.195 61.4922C159.711 61.4922 160.18 61.4219 160.602 61.2812C161.047 61.1406 161.504 60.9766 161.973 60.7891C162.207 60.8594 162.465 60.8945 162.746 60.8945C163.145 60.8945 163.52 60.8594 163.871 60.7891C164.246 60.7188 164.633 60.6836 165.031 60.6836C165.242 60.6836 165.441 60.7305 165.629 60.8242C165.84 60.918 166.074 60.9648 166.332 60.9648C166.566 60.9648 166.742 60.9531 166.859 60.9297C167.234 61.1172 167.633 61.3047 168.055 61.4922C168.5 61.6797 168.922 61.8789 169.32 62.0898C169.742 62.3008 170.129 62.5469 170.48 62.8281C170.855 63.0859 171.184 63.3906 171.465 63.7422C171.512 63.7891 171.57 63.8711 171.641 63.9883C171.711 64.082 171.758 64.1523 171.781 64.1992C171.828 64.293 171.852 64.4805 171.852 64.7617C171.875 65.043 171.887 65.2422 171.887 65.3594ZM211.262 88.1055C211.262 88.3164 211.18 88.5039 211.016 88.668C210.875 88.832 210.699 88.9609 210.488 89.0547C210.277 89.1719 210.055 89.2773 209.82 89.3711C209.609 89.4648 209.422 89.5469 209.258 89.6172C209 89.4766 208.73 89.3828 208.449 89.3359C208.191 89.2891 207.957 89.1719 207.746 88.9844H207.5C207.125 88.9844 206.832 89.0312 206.621 89.125C206.293 89.0078 206.023 88.832 205.812 88.5977C205.602 88.3867 205.402 88.1523 205.215 87.8945C205.027 87.6602 204.84 87.4258 204.652 87.1914C204.465 86.957 204.23 86.7578 203.949 86.5938C203.527 85.4219 203.152 84.2383 202.824 83.043C202.496 81.8477 202.25 80.6289 202.086 79.3867C202.133 79.2695 202.168 79.1406 202.191 79C202.215 78.8594 202.227 78.7305 202.227 78.6133C202.227 78.5195 202.203 78.4258 202.156 78.332C202.133 78.2148 202.062 78.1445 201.945 78.1211C202.062 77.9336 202.133 77.7227 202.156 77.4883C202.203 77.2305 202.227 76.9961 202.227 76.7852C202.227 76.3164 202.18 75.9297 202.086 75.625C202.227 75.5078 202.285 75.3203 202.262 75.0625C202.238 74.7812 202.297 74.582 202.438 74.4648C202.32 74.0664 202.262 73.6797 202.262 73.3047C202.262 72.7891 202.32 72.2852 202.438 71.793C202.578 71.3008 202.648 70.7969 202.648 70.2812C202.648 70.1641 202.637 70.0469 202.613 69.9297C202.613 69.8125 202.602 69.6953 202.578 69.5781C202.695 69.2031 202.801 68.8281 202.895 68.4531C203.012 68.0547 203.07 67.6562 203.07 67.2578C203.07 66.9766 203.023 66.7422 202.93 66.5547C203.234 65.4766 203.445 64.4102 203.562 63.3555C203.703 62.2773 203.832 61.1875 203.949 60.0859C203.926 60.0391 203.902 60.0039 203.879 59.9805C203.855 59.957 203.844 59.9219 203.844 59.875C203.844 59.7578 203.902 59.6641 204.02 59.5938C204.16 59.5234 204.219 59.3945 204.195 59.207C203.914 59.4883 203.68 59.8164 203.492 60.1914C203.328 60.5664 203.164 60.9414 203 61.3164C202.859 61.6914 202.695 62.0664 202.508 62.4414C202.344 62.793 202.121 63.1094 201.84 63.3906C201.816 63.6484 201.734 63.8945 201.594 64.1289C201.477 64.3633 201.418 64.6211 201.418 64.9023C201.395 64.9023 201.371 64.9023 201.348 64.9023C201.324 64.8789 201.289 64.8672 201.242 64.8672C201.148 64.8672 201.078 64.9258 201.031 65.043C201.008 65.1602 200.938 65.1953 200.82 65.1484C200.281 66.2031 199.684 67.2344 199.027 68.2422C198.395 69.25 197.562 70.0586 196.531 70.668C196.344 70.5977 196.168 70.5625 196.004 70.5625C195.699 70.5625 195.395 70.6562 195.09 70.8438C194.809 71.0078 194.621 71.0898 194.527 71.0898C194.293 71.0898 194 70.9727 193.648 70.7383C193.32 70.4805 192.98 70.3398 192.629 70.3164C192.254 70.0586 191.938 69.8008 191.68 69.543C191.445 69.2617 191.082 69.0977 190.59 69.0508C190.262 68.5586 189.934 68.0898 189.605 67.6445C189.301 67.1992 188.996 66.7656 188.691 66.3438C188.41 65.8984 188.152 65.4297 187.918 64.9375C187.707 64.4453 187.543 63.8945 187.426 63.2852C187.449 63.2383 187.461 63.1914 187.461 63.1445C187.461 63.0039 187.391 62.9453 187.25 62.9688C187.133 62.9922 187.074 62.9219 187.074 62.7578V62.5117C187.074 62.3242 187.039 62.1602 186.969 62.0195C186.922 61.8555 186.91 61.6797 186.934 61.4922C186.77 61.2344 186.641 60.9648 186.547 60.6836C186.453 60.4023 186.289 60.1562 186.055 59.9453V59.6289C186.055 59.4883 186.043 59.3594 186.02 59.2422C186.02 59.1016 185.984 58.9844 185.914 58.8906C185.867 58.7734 185.785 58.7031 185.668 58.6797C185.645 57.8359 185.469 56.9805 185.141 56.1133C184.836 55.2227 184.555 54.3672 184.297 53.5469C184.109 54.1562 183.969 54.7773 183.875 55.4102C183.781 56.0195 183.734 56.6406 183.734 57.2734V57.8711C183.734 58.0586 183.758 58.2461 183.805 58.4336C183.734 58.5508 183.629 58.6328 183.488 58.6797C183.371 58.7266 183.301 58.8203 183.277 58.9609C183.254 59.0781 183.242 59.1953 183.242 59.3125C183.266 59.4297 183.266 59.5469 183.242 59.6641C183.195 60.2266 183.125 60.7656 183.031 61.2812C182.891 62.0547 182.727 62.8398 182.539 63.6367C182.352 64.4102 182.258 65.207 182.258 66.0273C182.258 66.0742 182.258 66.1445 182.258 66.2383C182.281 66.3086 182.293 66.3672 182.293 66.4141C181.918 66.7422 181.719 67.1523 181.695 67.6445C181.672 68.1367 181.613 68.6055 181.52 69.0508C181.402 69.707 181.262 70.3633 181.098 71.0195C180.934 71.6523 180.793 72.3086 180.676 72.9883C180.605 73.3633 180.547 73.7383 180.5 74.1133C180.453 74.4648 180.406 74.8281 180.359 75.2031C180.336 75.4141 180.254 75.5898 180.113 75.7305C179.996 75.8711 179.914 76.0352 179.867 76.2227C179.844 76.3867 179.832 76.5742 179.832 76.7852C179.855 76.9727 179.867 77.1484 179.867 77.3125C179.867 77.5938 179.844 77.8633 179.797 78.1211C179.75 78.3555 179.609 78.5664 179.375 78.7539C179.422 79.3633 179.527 79.8789 179.691 80.3008C179.855 80.7461 180.043 81.2383 180.254 81.7773H181.133V81.918C181.133 82.1523 181.168 82.3633 181.238 82.5508C181.332 82.7383 181.508 82.8203 181.766 82.7969C181.742 82.8906 181.73 83.0078 181.73 83.1484C181.73 83.3594 181.766 83.5469 181.836 83.7109C181.93 83.8984 182 84.0977 182.047 84.3086C181.578 85.082 181.074 85.6562 180.535 86.0312C179.996 86.4062 179.258 86.5938 178.32 86.5938H177.758C177.641 86.2188 177.5 85.8555 177.336 85.5039C177.172 85.1523 177.008 84.8008 176.844 84.4492C176.703 84.0977 176.574 83.7344 176.457 83.3594C176.363 83.0078 176.316 82.6328 176.316 82.2344C176.316 82.1406 176.328 82.0469 176.352 81.9531C176.375 81.8828 176.387 81.8008 176.387 81.707C176.387 81.5898 176.34 81.5195 176.246 81.4961C176.152 81.4727 176.105 81.3555 176.105 81.1445C176.105 80.9805 176.094 80.8281 176.07 80.6875C176.07 80.5469 176.07 80.3945 176.07 80.2305C176.07 79.457 176.129 78.6953 176.246 77.9453C176.363 77.1719 176.445 76.3984 176.492 75.625C176.609 75.5078 176.668 75.3555 176.668 75.168C176.668 74.9805 176.727 74.8281 176.844 74.7109V74.4648C176.844 74.043 176.891 73.6211 176.984 73.1992C177.078 72.7773 177.184 72.3672 177.301 71.9688C177.418 71.5703 177.523 71.1602 177.617 70.7383C177.711 70.3164 177.758 69.8945 177.758 69.4727V68.9102C177.758 68.7461 177.828 68.6758 177.969 68.6992C178.133 68.6992 178.227 68.6055 178.25 68.418C178.297 68.0898 178.32 67.7734 178.32 67.4688C178.344 67.1406 178.379 66.8125 178.426 66.4844C178.543 65.8516 178.672 65.2188 178.812 64.5859C178.953 63.9297 179.023 63.2734 179.023 62.6172V62.5117C179.023 62.4414 179.082 62.3008 179.199 62.0898C179.316 61.8555 179.375 61.6328 179.375 61.4219C179.375 61.2578 179.34 61.1055 179.27 60.9648C179.293 60.9883 179.34 61 179.41 61C179.504 61 179.562 60.9766 179.586 60.9297C179.633 60.8594 179.691 60.8008 179.762 60.7539C179.691 60.6602 179.656 60.5664 179.656 60.4727C179.656 60.3555 179.668 60.25 179.691 60.1562C179.738 60.0391 179.762 59.9219 179.762 59.8047C179.762 59.6406 179.68 59.5234 179.516 59.4531C179.797 58.9375 179.996 58.3867 180.113 57.8008C180.254 57.2148 180.348 56.6172 180.395 56.0078C180.465 55.3984 180.523 54.7891 180.57 54.1797C180.617 53.5469 180.723 52.9492 180.887 52.3867C180.84 52.2461 180.805 52.0938 180.781 51.9297C180.781 51.7656 180.781 51.6133 180.781 51.4727C180.781 51.3789 180.77 51.2852 180.746 51.1914C180.723 51.0742 180.734 50.9688 180.781 50.875C180.781 50.8281 180.793 50.7695 180.816 50.6992L180.887 50.4883C180.934 50.3242 180.957 50.1602 180.957 49.9961C180.98 49.8086 181.004 49.6211 181.027 49.4336C181.074 48.8945 181.086 48.3438 181.062 47.7812C181.062 47.2188 181.086 46.6562 181.133 46.0938C181.062 46 180.992 45.9297 180.922 45.8828C180.852 45.8125 180.805 45.7188 180.781 45.6016C180.969 45.2734 181.168 44.9688 181.379 44.6875C181.613 44.3828 181.918 44.1484 182.293 43.9844C182.363 44.2422 182.551 44.3711 182.855 44.3711C182.996 44.3711 183.172 44.3359 183.383 44.2656C183.594 44.1953 183.734 44.1016 183.805 43.9844C184.203 44.125 184.602 44.1953 185 44.1953C185.422 44.1719 185.809 44.2656 186.16 44.4766C186.23 44.8281 186.324 45.1914 186.441 45.5664C186.559 45.9414 186.723 46.2812 186.934 46.5859C186.98 46.8906 187.027 47.2656 187.074 47.7109C187.121 48.1328 187.168 48.5781 187.215 49.0469C187.262 49.4922 187.332 49.9258 187.426 50.3477C187.52 50.7461 187.648 51.0625 187.812 51.2969C187.836 51.7188 187.906 52.1406 188.023 52.5625C188.141 52.9844 188.27 53.3945 188.41 53.793C188.551 54.168 188.668 54.5195 188.762 54.8477C188.879 55.1758 188.938 55.4453 188.938 55.6562C188.938 55.8438 188.902 55.9727 188.832 56.043C188.785 56.0898 188.738 56.1836 188.691 56.3242C188.785 56.582 188.914 56.8047 189.078 56.9922C189.242 57.1562 189.418 57.3555 189.605 57.5898C189.957 58.9258 190.414 60.2266 190.977 61.4922C191.539 62.7578 192.219 63.9766 193.016 65.1484C193.227 65.1719 193.391 65.2305 193.508 65.3242C193.648 65.418 193.859 65.4414 194.141 65.3945V65.6406C194.141 65.875 194.188 66.0391 194.281 66.1328C194.492 66.2734 194.738 66.3438 195.02 66.3438C195.324 66.3438 195.559 66.2617 195.723 66.0977C195.91 65.9102 196.086 65.6992 196.25 65.4648C196.414 65.2305 196.578 65.0078 196.742 64.7969C196.906 64.5859 197.129 64.4453 197.41 64.375V64.3047C197.41 64.1172 197.445 63.9648 197.516 63.8477C197.609 63.707 197.656 63.5547 197.656 63.3906C197.914 63.2031 198.113 62.9688 198.254 62.6875C198.395 62.4062 198.523 62.125 198.641 61.8438C198.758 61.5391 198.887 61.2578 199.027 61C199.191 60.7422 199.402 60.5312 199.66 60.3672C199.988 59.3594 200.387 58.4219 200.855 57.5547C201.324 56.6875 201.816 55.8086 202.332 54.918C202.332 54.8477 202.32 54.7773 202.297 54.707C202.273 54.6133 202.262 54.5312 202.262 54.4609C202.262 54.4375 202.285 54.332 202.332 54.1445C202.449 53.9102 202.555 53.6875 202.648 53.4766C202.742 53.2656 202.824 53.0312 202.895 52.7734C203.129 52.0469 203.34 51.332 203.527 50.6289C203.738 49.9258 204.043 49.2578 204.441 48.625V47.7461C204.863 46.9023 205.156 46.0117 205.32 45.0742C205.508 44.1367 205.73 43.2227 205.988 42.332C206.035 42.0742 206.117 41.8164 206.234 41.5586C206.375 41.2773 206.539 41.0781 206.727 40.9609C206.656 40.8203 206.621 40.6797 206.621 40.5391C206.621 40.3516 206.645 40.1875 206.691 40.0469C206.762 39.8828 206.82 39.7188 206.867 39.5547C206.797 39.3906 206.762 39.1797 206.762 38.9219C206.762 38.5938 206.855 38.2891 207.043 38.0078C207.23 37.7031 207.512 37.5039 207.887 37.4102C208.121 37.4805 208.32 37.5977 208.484 37.7617C208.648 37.9258 208.801 38.1016 208.941 38.2891C209.105 38.4531 209.27 38.5938 209.434 38.7109C209.621 38.8047 209.855 38.8281 210.137 38.7812C210.324 39.1328 210.453 39.5078 210.523 39.9062C210.594 40.2812 210.629 40.668 210.629 41.0664C210.629 41.6055 210.582 42.168 210.488 42.7539C210.395 43.3164 210.359 43.8906 210.383 44.4766C210.195 44.8516 210.055 45.2617 209.961 45.707C209.891 46.1289 209.82 46.5625 209.75 47.0078C209.68 47.4531 209.598 47.8867 209.504 48.3086C209.41 48.7305 209.246 49.1289 209.012 49.5039C208.941 50.5586 208.859 51.5898 208.766 52.5977C208.695 53.6055 208.578 54.6133 208.414 55.6211L208.098 57.625C208.051 57.7891 208.004 57.9766 207.957 58.1875C207.91 58.375 207.887 58.5391 207.887 58.6797C207.887 58.8203 207.898 58.9727 207.922 59.1367C207.945 59.2773 208.016 59.3828 208.133 59.4531C207.969 59.6875 207.852 59.9688 207.781 60.2969C207.711 60.625 207.641 60.9766 207.57 61.3516L207.395 62.4414C207.348 62.793 207.254 63.1094 207.113 63.3906V63.7773C207.113 64.7148 206.949 65.6758 206.621 66.6602V66.8359C206.621 66.9531 206.609 67.0586 206.586 67.1523C206.586 67.2227 206.586 67.3164 206.586 67.4336C206.586 67.5977 206.633 67.7266 206.727 67.8203C206.539 68.4297 206.363 69.0625 206.199 69.7188C206.035 70.3516 205.918 71.0078 205.848 71.6875C205.777 72.6016 205.766 73.5391 205.812 74.5C205.859 75.4375 205.742 76.3516 205.461 77.2422C205.602 77.6641 205.695 78.1211 205.742 78.6133L205.883 80.0898C205.93 80.582 206 81.0508 206.094 81.4961C206.211 81.9648 206.422 82.3516 206.727 82.6562C206.75 82.7031 206.762 82.7734 206.762 82.8672C206.762 83.0547 206.715 83.1953 206.621 83.2891C206.668 83.5234 206.75 83.7227 206.867 83.8867C206.984 84.0508 207.102 84.2031 207.219 84.3438C207.336 84.5078 207.43 84.6836 207.5 84.8711C207.594 85.0586 207.641 85.293 207.641 85.5742C207.828 85.832 208.121 86.0312 208.52 86.1719C208.918 86.3125 209.316 86.4531 209.715 86.5938C210.137 86.7344 210.5 86.9102 210.805 87.1211C211.109 87.3555 211.262 87.6836 211.262 88.1055ZM235.414 58.6445C235.273 58.8555 235.191 59.0898 235.168 59.3477C235.145 59.6055 235.133 59.8398 235.133 60.0508C235.133 60.332 235.133 60.6133 235.133 60.8945C235.156 61.1523 235.168 61.4102 235.168 61.668V62.1953C235.121 62.3594 235.051 62.5234 234.957 62.6875C234.863 62.8516 234.793 63.0156 234.746 63.1797C234.418 64.0469 234.254 64.9141 234.254 65.7812V65.8516C234.137 66.1328 234.02 66.3906 233.902 66.625C233.809 66.8594 233.715 67.0938 233.621 67.3281C233.527 67.5391 233.457 67.7734 233.41 68.0312C233.363 68.2656 233.352 68.5469 233.375 68.875C233.047 69.6953 232.613 70.4453 232.074 71.125C231.535 71.7812 231.008 72.4609 230.492 73.1641C230 73.3516 229.543 73.5977 229.121 73.9023C228.723 74.207 228.336 74.5469 227.961 74.9219C227.234 75.1562 226.52 75.4258 225.816 75.7305C225.113 76.0352 224.48 76.4453 223.918 76.9609C223.473 77.0078 223.027 77.0781 222.582 77.1719C222.137 77.2656 221.703 77.4062 221.281 77.5938H220.859C220.648 77.5938 220.496 77.5469 220.402 77.4531C220.098 77.6172 219.781 77.7344 219.453 77.8047C219.125 77.8516 218.797 77.875 218.469 77.875C218.047 77.875 217.625 77.8516 217.203 77.8047C216.805 77.7344 216.395 77.6641 215.973 77.5938C215.738 77.2656 215.41 77.0195 214.988 76.8555C214.566 76.668 214.191 76.4922 213.863 76.3281C213.184 75.3906 212.691 74.4883 212.387 73.6211C212.082 72.7305 211.766 71.7344 211.438 70.6328C211.484 70.3047 211.566 69.9883 211.684 69.6836C211.801 69.3555 211.848 69.0039 211.824 68.6289C212.246 67.4102 212.797 66.3086 213.477 65.3242C214.18 64.3164 214.977 63.3555 215.867 62.4414C215.867 62.3008 215.891 62.1836 215.938 62.0898C216.008 61.9961 216.02 61.8555 215.973 61.668C215.996 61.6914 216.043 61.7031 216.113 61.7031C216.301 61.7031 216.418 61.6562 216.465 61.5625C216.512 61.4453 216.523 61.3164 216.5 61.1758C217.344 60.6367 218.105 60.0156 218.785 59.3125C219.488 58.6094 220.285 58.0234 221.176 57.5547C221.246 57.3438 221.363 57.168 221.527 57.0273C221.691 56.8867 221.82 56.7227 221.914 56.5352C222.664 56.3242 223.344 56.0078 223.953 55.5859C224.562 55.1641 225.207 54.7891 225.887 54.4609C226.262 54.25 226.613 54.1094 226.941 54.0391C227.293 53.9453 227.668 53.8516 228.066 53.7578C228.207 53.7109 228.336 53.6758 228.453 53.6523C228.57 53.6289 228.699 53.6172 228.84 53.6172C229.262 53.6172 229.672 53.6992 230.07 53.8633C230.469 54.0039 230.879 54.0742 231.301 54.0742C231.418 54.0742 231.512 54.0742 231.582 54.0742C231.676 54.0508 231.77 54.0273 231.863 54.0039C232.262 54.4961 232.766 54.8711 233.375 55.1289C233.516 55.4805 233.68 55.7852 233.867 56.043C234.078 56.3008 234.289 56.5586 234.5 56.8164C234.711 57.0508 234.898 57.3203 235.062 57.625C235.25 57.9062 235.367 58.2461 235.414 58.6445ZM231.898 60.4727C231.898 60.3555 231.887 60.25 231.863 60.1562C231.629 60.0859 231.406 59.9922 231.195 59.875C230.984 59.7578 230.75 59.6992 230.492 59.6992C230.328 59.6992 230.164 59.7344 230 59.8047C229.977 59.6406 229.906 59.5234 229.789 59.4531C229.695 59.3828 229.578 59.3242 229.438 59.2773C229.32 59.207 229.191 59.1602 229.051 59.1367C228.934 59.0898 228.828 59.0195 228.734 58.9258C228.664 58.7383 228.582 58.5508 228.488 58.3633C228.418 58.1523 228.277 58 228.066 57.9062C227.855 58.1172 227.609 58.293 227.328 58.4336C227.047 58.5508 226.754 58.668 226.449 58.7852C226.168 58.9023 225.887 59.043 225.605 59.207C225.348 59.3711 225.125 59.5703 224.938 59.8047H224.305C224.164 60.0625 223.965 60.2617 223.707 60.4023C223.449 60.5195 223.227 60.6953 223.039 60.9297C222.664 61.1172 222.312 61.3516 221.984 61.6328C221.68 61.8906 221.375 62.1719 221.07 62.4766C220.766 62.7578 220.461 63.0508 220.156 63.3555C219.875 63.6602 219.57 63.9414 219.242 64.1992C218.938 64.8555 218.598 65.4297 218.223 65.9219C217.871 66.3906 217.531 66.8711 217.203 67.3633C216.898 67.8555 216.629 68.3945 216.395 68.9805C216.184 69.543 216.078 70.2461 216.078 71.0898V71.4414C216.078 71.5586 216.09 71.6758 216.113 71.793C216.418 72.1211 216.664 72.4727 216.852 72.8477C217.062 73.2227 217.402 73.4922 217.871 73.6562C218.34 73.8438 218.832 73.9258 219.348 73.9023C219.887 73.8789 220.402 73.9375 220.895 74.0781C222.02 73.8672 223.098 73.5273 224.129 73.0586C225.184 72.5664 226.18 71.9805 227.117 71.3008C227.258 71.1836 227.422 71.0664 227.609 70.9492C227.797 70.8086 227.949 70.668 228.066 70.5273C228.184 70.4102 228.277 70.2812 228.348 70.1406C228.441 70 228.535 69.8711 228.629 69.7539C228.816 69.4492 229.027 69.1445 229.262 68.8398C229.496 68.5352 229.742 68.2539 230 67.9961C230.117 67.4805 230.27 66.9883 230.457 66.5195C230.645 66.0273 230.832 65.5469 231.02 65.0781C231.207 64.6094 231.359 64.1289 231.477 63.6367C231.617 63.1445 231.688 62.6289 231.688 62.0898C231.688 61.9727 231.676 61.8438 231.652 61.7031C231.652 61.5625 231.641 61.4336 231.617 61.3164C231.805 61.0586 231.898 60.7773 231.898 60.4727ZM257.141 53.9688C257.141 54.3672 257.117 54.7539 257.07 55.1289C257.047 55.4805 256.977 55.8555 256.859 56.2539C256.648 56.418 256.461 56.6172 256.297 56.8516L255.805 57.5195C255.641 57.7305 255.465 57.9414 255.277 58.1523C255.09 58.3398 254.855 58.4922 254.574 58.6094C254.34 59.6406 254.047 60.6367 253.695 61.5977C253.367 62.5352 253.121 63.5195 252.957 64.5508C252.676 65.0664 252.453 65.6289 252.289 66.2383C252.125 66.8477 251.949 67.4688 251.762 68.1016C251.598 68.7109 251.41 69.2969 251.199 69.8594C250.988 70.4219 250.695 70.9258 250.32 71.3711C250.133 71.9336 249.945 72.543 249.758 73.1992C249.57 73.832 249.254 74.3594 248.809 74.7812C248.832 74.8281 248.844 74.8984 248.844 74.9922C248.844 75.2734 248.773 75.543 248.633 75.8008C248.492 76.0352 248.422 76.2812 248.422 76.5391C248.047 76.8203 247.684 77.1484 247.332 77.5234C247.004 77.8984 246.664 78.2734 246.312 78.6484C245.961 79.0234 245.586 79.3516 245.188 79.6328C244.789 79.9141 244.355 80.1016 243.887 80.1953C243.559 79.9609 243.254 79.6914 242.973 79.3867C242.691 79.1055 242.363 78.8711 241.988 78.6836C241.801 77.6289 241.684 76.5977 241.637 75.5898C241.613 74.5586 241.531 73.5391 241.391 72.5312C241.297 71.9453 241.145 71.3828 240.934 70.8438C240.746 70.3047 240.652 69.7539 240.652 69.1914C240.652 69.0742 240.652 68.957 240.652 68.8398C240.676 68.6992 240.699 68.5703 240.723 68.4531C240.488 68.1953 240.336 67.8789 240.266 67.5039C240.195 67.1055 240.137 66.707 240.09 66.3086C240.043 65.8867 239.973 65.4766 239.879 65.0781C239.809 64.6797 239.668 64.3398 239.457 64.0586C239.551 63.9648 239.598 63.8359 239.598 63.6719C239.598 63.5547 239.574 63.4375 239.527 63.3203C239.504 63.2031 239.492 63.0859 239.492 62.9688C239.492 62.875 239.527 62.7695 239.598 62.6523C239.41 62.418 239.281 62.207 239.211 62.0195C239.164 61.8086 239.129 61.6094 239.105 61.4219C239.082 61.2109 239.059 61 239.035 60.7891C239.035 60.5781 239.012 60.3555 238.965 60.1211C238.918 59.957 238.836 59.8398 238.719 59.7695C238.625 59.6758 238.578 59.6055 238.578 59.5586C238.578 59.4414 238.625 59.3477 238.719 59.2773C238.391 58.8086 238.121 58.3164 237.91 57.8008C237.699 57.2852 237.465 56.7695 237.207 56.2539C237.23 55.9961 237.324 55.7969 237.488 55.6562C237.652 55.5156 237.77 55.3281 237.84 55.0938H238.965C239.996 57.1094 240.781 59.207 241.32 61.3867C241.883 63.543 242.375 65.7227 242.797 67.9258C242.914 68.5586 243.02 69.1914 243.113 69.8242C243.23 70.457 243.359 71.1016 243.5 71.7578C243.547 71.8984 243.617 72.0508 243.711 72.2148C243.805 72.3789 243.852 72.543 243.852 72.707C243.852 72.8477 243.816 72.9883 243.746 73.1289C243.887 73.2227 243.992 73.3516 244.062 73.5156C244.156 73.6797 244.227 73.8555 244.273 74.043C244.344 74.207 244.402 74.3828 244.449 74.5703C244.496 74.7344 244.566 74.8867 244.66 75.0273C244.941 75.0039 245.188 74.875 245.398 74.6406C245.609 74.4062 245.797 74.1367 245.961 73.832C246.148 73.5039 246.312 73.1875 246.453 72.8828C246.617 72.5547 246.805 72.2969 247.016 72.1094C247.039 71.8516 247.086 71.6055 247.156 71.3711C247.25 71.1133 247.297 70.8555 247.297 70.5977C247.531 70.1992 247.742 69.8242 247.93 69.4727C248.117 69.1211 248.234 68.6992 248.281 68.207C248.398 68.1133 248.469 68.043 248.492 67.9961C248.516 67.9258 248.621 67.9141 248.809 67.9609C248.809 67.3281 248.902 66.7188 249.09 66.1328C249.301 65.5234 249.582 64.9492 249.934 64.4102C249.98 63.8711 250.086 63.332 250.25 62.793C250.438 62.2305 250.648 61.6797 250.883 61.1406C250.953 60.9766 251.047 60.7891 251.164 60.5781C251.281 60.3438 251.34 60.1328 251.34 59.9453C251.34 59.8516 251.316 59.7695 251.27 59.6992C251.246 59.6055 251.234 59.5117 251.234 59.418C251.234 59.2305 251.305 59.0664 251.445 58.9258C251.586 58.7852 251.715 58.6445 251.832 58.5039C251.832 57.9648 251.891 57.4258 252.008 56.8867C252.125 56.3477 252.359 55.8789 252.711 55.4805C252.828 54.6836 252.98 53.9102 253.168 53.1602C253.355 52.3867 253.625 51.6484 253.977 50.9453H255.242C255.242 50.5 255.441 50.2773 255.84 50.2773C256.074 50.2773 256.332 50.3359 256.613 50.4531C256.801 50.9688 256.93 51.5547 257 52.2109C257.094 52.8438 257.141 53.4297 257.141 53.9688ZM264.664 74.1836C264.547 74.3711 264.406 74.5469 264.242 74.7109C264.078 74.8516 263.926 75.0039 263.785 75.168C263.621 75.2383 263.434 75.2734 263.223 75.2734C263.035 75.2734 262.848 75.2734 262.66 75.2734C262.496 75.25 262.332 75.25 262.168 75.2734C262.027 75.2734 261.91 75.3203 261.816 75.4141C261.629 75.3672 261.488 75.2852 261.395 75.168C261.301 75.0273 261.137 74.9453 260.902 74.9219C260.809 74.8984 260.715 74.8984 260.621 74.9219C260.27 74.5234 259.941 74.1016 259.637 73.6562C259.355 73.2109 259.086 72.7891 258.828 72.3906C258.805 71.5234 258.734 70.6445 258.617 69.7539C258.594 69.543 258.559 69.332 258.512 69.1211C258.465 68.9102 258.43 68.7109 258.406 68.5234C258.406 68.2891 258.418 68.0664 258.441 67.8555C258.488 67.6211 258.523 67.4102 258.547 67.2227C258.641 66.543 258.746 65.875 258.863 65.2188C258.98 64.5625 259.086 63.8945 259.18 63.2148C259.273 62.6055 259.32 61.9727 259.32 61.3164C259.32 60.6367 259.215 60.0039 259.004 59.418L258.969 59.2422C259.016 59.0547 259.062 58.9023 259.109 58.7852C259.18 58.6445 259.227 58.4922 259.25 58.3281C259.297 58.0703 259.238 57.8828 259.074 57.7656C259.145 57.5781 259.262 57.4609 259.426 57.4141C259.59 57.3438 259.684 57.2031 259.707 56.9922C259.73 56.8984 259.73 56.8047 259.707 56.7109C259.895 56.6406 260.082 56.582 260.27 56.5352C260.48 56.4648 260.68 56.4531 260.867 56.5C261.172 56.5469 261.441 56.6523 261.676 56.8164C261.91 56.957 262.133 57.1211 262.344 57.3086C262.719 58.4336 262.871 59.6289 262.801 60.8945C262.73 62.1367 262.613 63.3906 262.449 64.6562C262.285 65.9219 262.18 67.1641 262.133 68.3828C262.086 69.5781 262.273 70.6914 262.695 71.7227L262.766 71.7578C262.883 71.7812 262.977 71.7461 263.047 71.6523C263.117 71.5352 263.211 71.4883 263.328 71.5117C263.422 71.5586 263.48 71.582 263.504 71.582C263.598 72.0508 263.75 72.4961 263.961 72.918C264.172 73.3398 264.406 73.7617 264.664 74.1836ZM290.258 56.6406V56.7812C290.094 56.8281 290.012 56.9453 290.012 57.1328C289.754 57.25 289.484 57.3438 289.203 57.4141C288.922 57.4609 288.652 57.543 288.395 57.6602C288.137 57.6367 287.867 57.625 287.586 57.625C287.328 57.6016 287.07 57.5898 286.812 57.5898C286.109 57.5898 285.406 57.6133 284.703 57.6602C284 57.707 283.297 57.707 282.594 57.6602C282.266 57.8477 281.902 58 281.504 58.1172C281.129 58.2109 280.766 58.2578 280.414 58.2578C280.133 58.2578 279.887 58.2227 279.676 58.1523C279.113 58.4336 278.492 58.668 277.812 58.8555C277.156 59.043 276.488 59.2305 275.809 59.418C275.129 59.582 274.473 59.7812 273.84 60.0156C273.23 60.2266 272.691 60.5312 272.223 60.9297C272.176 61.2578 272.141 61.5859 272.117 61.9141C272.094 62.2188 272.082 62.5234 272.082 62.8281C272.082 63.1562 272.094 63.4609 272.117 63.7422C272.164 64.0234 272.246 64.3047 272.363 64.5859C272.48 64.6328 272.609 64.668 272.75 64.6914C272.914 64.7148 273.055 64.7266 273.172 64.7266C273.289 64.7266 273.406 64.7148 273.523 64.6914C273.641 64.6445 273.723 64.5625 273.77 64.4453C274.121 64.3984 274.473 64.3867 274.824 64.4102C275.176 64.4102 275.527 64.4102 275.879 64.4102C276.23 64.4102 276.57 64.3984 276.898 64.375C277.25 64.3516 277.59 64.293 277.918 64.1992C278.293 64.1055 278.656 64.0469 279.008 64.0234C279.383 64 279.746 63.9766 280.098 63.9531C280.449 63.9297 280.812 63.8945 281.188 63.8477C281.562 63.7773 281.949 63.6484 282.348 63.4609C282.652 63.5781 282.957 63.6367 283.262 63.6367C283.59 63.6367 283.906 63.6602 284.211 63.707C284.375 63.8242 284.504 63.9531 284.598 64.0938C284.715 64.2344 284.773 64.3984 284.773 64.5859C284.773 64.9141 284.656 65.2422 284.422 65.5703C284.188 65.8984 284 66.2031 283.859 66.4844H283.473C282.91 66.4844 282.359 66.5664 281.82 66.7305C281.305 66.8711 280.777 67.0469 280.238 67.2578C279.723 67.4453 279.195 67.6211 278.656 67.7852C278.141 67.9258 277.602 67.9961 277.039 67.9961C276.945 67.9961 276.887 68.0547 276.863 68.1719C276.863 68.2656 276.84 68.3359 276.793 68.3828C276.676 68.3594 276.5 68.3477 276.266 68.3477C275.727 68.3477 275.211 68.4062 274.719 68.5234C274.227 68.6406 273.723 68.6992 273.207 68.6992C273.066 68.6992 272.926 68.6992 272.785 68.6992C272.645 68.6758 272.504 68.6523 272.363 68.6289C272.246 68.8164 272.094 68.9453 271.906 69.0156C271.719 69.0625 271.543 69.1562 271.379 69.2969C271.309 69.5078 271.262 69.7656 271.238 70.0703C271.238 70.375 271.227 70.6914 271.203 71.0195C271.203 71.3242 271.18 71.6172 271.133 71.8984C271.086 72.1797 270.992 72.4023 270.852 72.5664C270.875 72.6836 270.969 72.7305 271.133 72.707C271.297 72.6602 271.379 72.7305 271.379 72.918C271.379 73.1289 271.355 73.3516 271.309 73.5859C271.262 73.8203 271.238 74.0547 271.238 74.2891C271.238 74.7344 271.285 75.2266 271.379 75.7656C271.496 76.2812 271.66 76.7617 271.871 77.207C272.105 77.6523 272.41 78.0273 272.785 78.332C273.16 78.6133 273.629 78.7539 274.191 78.7539C274.566 78.7539 274.918 78.6836 275.246 78.543C275.574 78.4023 275.844 78.168 276.055 77.8398L276.23 77.8047C276.324 77.8047 276.406 77.8164 276.477 77.8398C276.57 77.8633 276.664 77.875 276.758 77.875C276.898 77.875 277.074 77.793 277.285 77.6289C277.52 77.4414 277.766 77.2305 278.023 76.9961C278.305 76.7617 278.586 76.5391 278.867 76.3281C279.148 76.0938 279.418 75.9297 279.676 75.8359C279.84 75.5078 279.992 75.1797 280.133 74.8516C280.297 74.5234 280.531 74.2656 280.836 74.0781V73.0586C281.07 72.8008 281.316 72.5664 281.574 72.3555C281.855 72.1445 282.066 71.875 282.207 71.5469C282.324 71.5938 282.43 71.6289 282.523 71.6523C282.641 71.6758 282.758 71.6875 282.875 71.6875C282.992 71.6875 283.109 71.6758 283.227 71.6523C283.367 71.6289 283.496 71.5938 283.613 71.5469C283.801 71.8047 283.941 72.0977 284.035 72.4258C284.152 72.7305 284.293 73.0234 284.457 73.3047C284.246 73.7266 284 74.2305 283.719 74.8164C283.438 75.4023 283.133 75.9883 282.805 76.5742C282.477 77.1602 282.125 77.7227 281.75 78.2617C281.398 78.7773 281.047 79.1758 280.695 79.457C280.625 79.5273 280.473 79.6094 280.238 79.7031C279.98 79.8906 279.746 80.0664 279.535 80.2305C279.324 80.418 279.125 80.6289 278.938 80.8633C278.258 81.0742 277.602 81.3555 276.969 81.707C276.359 82.0586 275.75 82.3984 275.141 82.7266C274.859 82.6562 274.555 82.6211 274.227 82.6211C273.945 82.6211 273.664 82.6328 273.383 82.6562C273.102 82.7031 272.797 82.7266 272.469 82.7266C272.375 82.6094 272.234 82.5273 272.047 82.4805C271.883 82.457 271.824 82.3398 271.871 82.1289C271.074 82.082 270.43 81.8594 269.938 81.4609C269.445 81.0859 269.023 80.6172 268.672 80.0547C268.344 79.4922 268.074 78.8828 267.863 78.2266C267.652 77.5703 267.43 76.9375 267.195 76.3281V76.2227C267.195 76.1055 267.242 76.0352 267.336 76.0117C267.43 75.9883 267.477 75.918 267.477 75.8008C267.477 75.7539 267.465 75.7188 267.441 75.6953C267.371 75.4375 267.312 75.2148 267.266 75.0273C267.219 74.8398 267.195 74.6172 267.195 74.3594C267.195 73.9844 267.219 73.6211 267.266 73.2695C267.312 72.8945 267.336 72.5195 267.336 72.1445C267.336 71.7695 267.289 71.4414 267.195 71.1602C267.289 71.043 267.371 70.8906 267.441 70.7031C267.488 70.4922 267.523 70.2812 267.547 70.0703C267.57 69.8594 267.582 69.6484 267.582 69.4375C267.605 69.2266 267.641 69.0391 267.688 68.875C267.594 68.6172 267.512 68.3945 267.441 68.207C267.371 67.9961 267.336 67.75 267.336 67.4688V67.2227C267.57 66.8242 267.77 66.4141 267.934 65.9922C268.098 65.5703 268.273 65.1367 268.461 64.6914V64.5859C268.461 63.9062 268.438 63.2266 268.391 62.5469C268.344 61.8672 268.32 61.1875 268.32 60.5078V59.8398C268.32 59.6055 268.332 59.3828 268.355 59.1719C268.543 59.0781 268.684 58.9492 268.777 58.7852C268.871 58.6211 269.012 58.4922 269.199 58.3984H270.359L270.57 58.0469C270.641 57.9297 270.688 57.8008 270.711 57.6602C270.969 57.5898 271.215 57.4961 271.449 57.3789C271.707 57.2383 271.941 57.0977 272.152 56.957C272.48 56.7695 272.773 56.6055 273.031 56.4648C273.312 56.3008 273.582 56.1719 273.84 56.0781C274.121 55.9609 274.414 55.8672 274.719 55.7969C275.023 55.7266 275.375 55.668 275.773 55.6211C275.961 55.6211 276.078 55.5859 276.125 55.5156C276.195 55.4453 276.289 55.3633 276.406 55.2695C276.688 55.3164 276.969 55.3633 277.25 55.4102C277.531 55.4336 277.812 55.4453 278.094 55.4453C278.656 55.4453 279.184 55.3398 279.676 55.1289C280.379 55.1289 281.07 55.1172 281.75 55.0938C282.453 55.0703 283.156 55.0586 283.859 55.0586C284.469 55.0586 285.078 55.082 285.688 55.1289C286.297 55.1758 286.895 55.2578 287.48 55.375C287.691 55.3047 287.926 55.2695 288.184 55.2695C288.465 55.2695 288.746 55.3047 289.027 55.375C289.332 55.4219 289.625 55.4219 289.906 55.375C289.93 55.6328 289.988 55.8555 290.082 56.043C290.199 56.207 290.258 56.4062 290.258 56.6406ZM307.168 74.5703C307.168 74.9688 307.062 75.3203 306.852 75.625C306.664 75.9062 306.594 76.2578 306.641 76.6797C306.312 76.8672 306.043 77.1133 305.832 77.418C305.621 77.7227 305.422 78.0391 305.234 78.3672C303.688 79.375 302.023 80.1836 300.242 80.793C298.484 81.4258 296.668 81.7422 294.793 81.7422C294.676 81.7422 294.57 81.6836 294.477 81.5664C294.383 81.4727 294.289 81.3672 294.195 81.25C294.102 81.1328 293.996 81.0156 293.879 80.8984C293.785 80.8047 293.668 80.7578 293.527 80.7578C293.363 80.7578 293.234 80.793 293.141 80.8633C293.141 80.8164 293.141 80.7695 293.141 80.7227C293.164 80.6992 293.176 80.6641 293.176 80.6172C293.176 80.3359 293.141 80.043 293.07 79.7383C293 79.457 292.965 79.1758 292.965 78.8945C292.965 78.5664 293.023 78.2969 293.141 78.0859H293.562C293.797 78.0859 294.02 78.0742 294.23 78.0508C294.465 78.0039 294.711 77.9805 294.969 77.9805C295.227 77.9805 295.461 78.0508 295.672 78.1914C296.961 78.1445 298.18 77.9102 299.328 77.4883C300.5 77.043 301.684 76.6094 302.879 76.1875C303.066 75.9297 303.172 75.6484 303.195 75.3438C303.242 75.0156 303.336 74.7109 303.477 74.4297C302.867 73.9141 302.246 73.5156 301.613 73.2344C301.004 72.9297 300.289 72.8242 299.469 72.918C298.977 72.6133 298.449 72.4375 297.887 72.3906C297.348 72.3438 296.797 72.2734 296.234 72.1797C296.094 72.1562 295.941 72.1328 295.777 72.1094C295.637 72.0625 295.484 72.0391 295.32 72.0391C295.203 72.0391 295.086 72.0742 294.969 72.1445C294.875 72.1914 294.852 72.2734 294.898 72.3906C294.781 72.2031 294.617 72.0977 294.406 72.0742C294.219 72.0273 294.055 71.9336 293.914 71.793C293.164 71.7461 292.508 71.6172 291.945 71.4062C291.383 71.1719 290.762 70.9141 290.082 70.6328C289.895 70.5625 289.707 70.5156 289.52 70.4922C289.355 70.4453 289.191 70.375 289.027 70.2812C288.605 70.0703 288.266 69.7891 288.008 69.4375C287.75 69.0859 287.551 68.6992 287.41 68.2773C287.246 67.832 287.129 67.375 287.059 66.9062C286.988 66.4375 286.918 66.0039 286.848 65.6055C287.059 65.2305 287.258 64.8438 287.445 64.4453C287.609 64.0469 287.75 63.625 287.867 63.1797C288.008 63.1094 288.148 63.0508 288.289 63.0039C288.43 62.957 288.582 62.8984 288.746 62.8281C288.723 62.7812 288.711 62.7227 288.711 62.6523C288.711 62.5352 288.746 62.418 288.816 62.3008C288.91 62.1836 288.934 62.0664 288.887 61.9492C289.402 61.4805 289.895 61 290.363 60.5078C290.855 59.9922 291.277 59.4297 291.629 58.8203C291.98 58.7031 292.262 58.5273 292.473 58.293C292.684 58.0586 292.895 57.8242 293.105 57.5898C293.316 57.332 293.551 57.1094 293.809 56.9219C294.066 56.7109 294.395 56.582 294.793 56.5352C294.887 56.3711 295.016 56.2422 295.18 56.1484C295.344 56.0312 295.508 55.9258 295.672 55.832C295.836 55.7383 295.988 55.6328 296.129 55.5156C296.27 55.3984 296.375 55.2344 296.445 55.0234C296.82 55.0234 297.16 54.9531 297.465 54.8125C297.793 54.6719 298.109 54.5195 298.414 54.3555C298.719 54.1914 299.023 54.0391 299.328 53.8984C299.656 53.7578 300.008 53.6875 300.383 53.6875C300.477 53.6875 300.57 53.6992 300.664 53.7227C300.758 53.7227 300.863 53.7344 300.98 53.7578C301.145 53.9219 301.25 54.1211 301.297 54.3555C301.367 54.5664 301.414 54.8008 301.438 55.0586C301.461 55.3164 301.473 55.5742 301.473 55.832C301.496 56.0898 301.543 56.3242 301.613 56.5352C301.402 56.9336 301.168 57.332 300.91 57.7305C300.676 58.1289 300.359 58.4336 299.961 58.6445H299.891C299.727 58.668 299.574 58.6328 299.434 58.5391C299.293 58.4453 299.129 58.3984 298.941 58.3984C298.824 58.3984 298.73 58.4336 298.66 58.5039L298.484 58.6797C298.438 58.7266 298.367 58.7734 298.273 58.8203C298.203 58.8672 298.098 58.8672 297.957 58.8203C297.629 58.9375 297.5 59.1367 297.57 59.418C297.125 59.4648 296.75 59.6055 296.445 59.8398C296.141 60.0508 295.859 60.2969 295.602 60.5781C295.344 60.8359 295.086 61.082 294.828 61.3164C294.57 61.5273 294.266 61.6445 293.914 61.668C293.516 62.3711 293.023 62.9922 292.438 63.5312C291.875 64.0703 291.406 64.6797 291.031 65.3594C291.102 65.5469 291.148 65.7461 291.172 65.957C291.195 66.168 291.23 66.3906 291.277 66.625C291.488 66.9062 291.734 67.1523 292.016 67.3633C292.32 67.5742 292.613 67.7852 292.895 67.9961H293C293.469 67.9961 293.902 68.0898 294.301 68.2773C294.699 68.4414 295.121 68.5234 295.566 68.5234C295.801 68.5234 296 68.4766 296.164 68.3828C296.773 68.5234 297.371 68.6406 297.957 68.7344C298.566 68.8281 299.176 68.8984 299.785 68.9453C300.09 68.9922 300.395 69.0156 300.699 69.0156C301.027 69.0156 301.332 69.0508 301.613 69.1211C301.871 69.1914 302.129 69.2852 302.387 69.4023C302.645 69.4961 302.902 69.6016 303.16 69.7188C303.699 69.9531 304.203 70.2109 304.672 70.4922C305.164 70.7734 305.598 71.1133 305.973 71.5117C306.348 71.8867 306.641 72.332 306.852 72.8477C307.062 73.3398 307.168 73.9141 307.168 74.5703Z" fill="white"/>
</svg>
