<svg width="75" height="13" viewBox="0 0 75 13" fill="none" xmlns="http://www.w3.org/2000/svg">
<path d="M3.446 3.784V5.944H5.138C5.33 5.944 5.456 5.98 5.516 6.052C5.588 6.112 5.624 6.238 5.624 6.43V6.988H3.446V8.698C3.446 8.89 3.41 9.022 3.338 9.094C3.278 9.154 3.152 9.184 2.96 9.184H2.402V6.988H0.71C0.518 6.988 0.386 6.958 0.314 6.898C0.254 6.826 0.224 6.694 0.224 6.502V5.944H2.402V4.27C2.402 4.078 2.432 3.952 2.492 3.892C2.564 3.82 2.696 3.784 2.888 3.784H3.446ZM12.9598 5.278C12.9598 5.626 12.9298 5.914 12.8698 6.142C12.8218 6.358 12.7318 6.532 12.5998 6.664C12.4678 6.784 12.2938 6.868 12.0778 6.916C11.8618 6.964 11.5858 6.988 11.2498 6.988H10.2058C10.0258 6.988 9.87584 7.006 9.75584 7.042C9.64784 7.066 9.56384 7.114 9.50384 7.186C9.44384 7.258 9.40184 7.36 9.37784 7.492C9.36584 7.624 9.35984 7.798 9.35984 8.014V10.93C9.35984 11.302 9.40784 11.566 9.50384 11.722C9.59984 11.878 9.83384 11.956 10.2058 11.956H12.9598V12.514C12.9598 12.706 12.9238 12.838 12.8518 12.91C12.7918 12.97 12.6658 13 12.4738 13H9.62984C9.00584 13 8.56184 12.874 8.29784 12.622C8.04584 12.358 7.91984 11.914 7.91984 11.29V7.654C7.91984 7.306 7.94384 7.024 7.99184 6.808C8.05184 6.58 8.14784 6.406 8.27984 6.286C8.41184 6.154 8.58584 6.064 8.80184 6.016C9.01784 5.968 9.29384 5.944 9.62984 5.944H10.6738C10.8538 5.944 10.9978 5.932 11.1058 5.908C11.2258 5.872 11.3158 5.818 11.3758 5.746C11.4358 5.674 11.4718 5.572 11.4838 5.44C11.5078 5.308 11.5198 5.134 11.5198 4.918V2.47C11.5198 2.098 11.4718 1.834 11.3758 1.678C11.2798 1.522 11.0458 1.444 10.6738 1.444H8.02784C8.09984 1.096 8.20784 0.838 8.35184 0.669999C8.50784 0.489999 8.75984 0.399999 9.10784 0.399999H11.2498C11.8738 0.399999 12.3118 0.531999 12.5638 0.795999C12.8278 1.048 12.9598 1.486 12.9598 2.11V5.278ZM20.526 12.514C20.526 12.706 20.49 12.838 20.418 12.91C20.358 12.97 20.232 13 20.04 13H19.086V6.988H16.656C16.32 6.988 16.044 6.964 15.828 6.916C15.612 6.868 15.438 6.784 15.306 6.664C15.174 6.532 15.078 6.358 15.018 6.142C14.97 5.914 14.946 5.626 14.946 5.278V0.885999C14.946 0.694 14.976 0.568 15.036 0.508C15.108 0.435999 15.24 0.399999 15.432 0.399999H16.386V4.918C16.386 5.134 16.392 5.308 16.404 5.44C16.428 5.572 16.47 5.674 16.53 5.746C16.59 5.818 16.674 5.872 16.782 5.908C16.902 5.932 17.052 5.944 17.232 5.944H19.086V0.885999C19.086 0.694 19.116 0.568 19.176 0.508C19.248 0.435999 19.38 0.399999 19.572 0.399999H20.526V12.514ZM26.1004 2.47C26.1004 2.098 26.0524 1.834 25.9564 1.678C25.8604 1.522 25.6264 1.444 25.2544 1.444H22.6084C22.6804 1.096 22.7884 0.838 22.9324 0.669999C23.0884 0.489999 23.3404 0.399999 23.6884 0.399999H25.8304C26.4544 0.399999 26.8924 0.531999 27.1444 0.795999C27.4084 1.048 27.5404 1.486 27.5404 2.11V4.738C27.5404 5.23 27.4864 5.602 27.3784 5.854C27.2704 6.106 27.0424 6.274 26.6944 6.358V6.376C27.3544 6.544 27.6844 7.09 27.6844 8.014V11.29C27.6844 11.914 27.5524 12.358 27.2884 12.622C27.0364 12.874 26.5984 13 25.9744 13H23.8324C23.4844 13 23.2324 12.916 23.0764 12.748C22.9324 12.568 22.8244 12.304 22.7524 11.956H25.3984C25.7704 11.956 26.0044 11.878 26.1004 11.722C26.1964 11.566 26.2444 11.302 26.2444 10.93V8.014C26.2444 7.642 26.1664 7.378 26.0104 7.222C25.8544 7.066 25.5904 6.988 25.2184 6.988H23.7064V6.43C23.7064 6.238 23.7364 6.112 23.7964 6.052C23.8684 5.98 24.0004 5.944 24.1924 5.944H25.3264C25.6504 5.932 25.8604 5.848 25.9564 5.692C26.0524 5.524 26.1004 5.266 26.1004 4.918V2.47Z" fill="white"/>
<path d="M35.1832 8.626C35.0992 8.806 35.0152 8.932 34.9312 9.004C34.8592 9.076 34.7452 9.112 34.5892 9.112H34.0132L31.5112 2.524H31.4032L31.5472 4.702L31.6372 12.514C31.6372 12.706 31.6012 12.838 31.5292 12.91C31.4692 12.97 31.3432 13 31.1512 13H30.1612V0.885999C30.1612 0.694 30.1912 0.568 30.2512 0.508C30.3232 0.435999 30.4552 0.399999 30.6472 0.399999H31.8532L34.1572 6.268L34.5532 7.762H34.6612L35.0752 6.268L37.3432 0.885999C37.4152 0.717999 37.4992 0.597999 37.5952 0.526C37.6912 0.441999 37.8292 0.399999 38.0092 0.399999H39.0892V12.514C39.0892 12.706 39.0532 12.838 38.9812 12.91C38.9212 12.97 38.7952 13 38.6032 13H37.6492V4.702L37.8112 2.524H37.7032L35.1832 8.626ZM43.0789 10.93C43.0789 11.302 43.1269 11.566 43.2229 11.722C43.3189 11.878 43.5529 11.956 43.9249 11.956H45.5449C45.9169 11.956 46.1509 11.878 46.2469 11.722C46.3429 11.566 46.3909 11.302 46.3909 10.93V2.47C46.3909 2.098 46.3429 1.834 46.2469 1.678C46.1509 1.522 45.9169 1.444 45.5449 1.444H43.9249C43.5529 1.444 43.3189 1.522 43.2229 1.678C43.1269 1.834 43.0789 2.098 43.0789 2.47V10.93ZM41.6389 2.11C41.6389 1.486 41.7649 1.048 42.0169 0.795999C42.2809 0.531999 42.7249 0.399999 43.3489 0.399999H46.1209C46.7449 0.399999 47.1829 0.531999 47.4349 0.795999C47.6989 1.048 47.8309 1.486 47.8309 2.11V11.29C47.8309 11.914 47.6989 12.358 47.4349 12.622C47.1829 12.874 46.7449 13 46.1209 13H43.3489C42.7249 13 42.2809 12.874 42.0169 12.622C41.7649 12.358 41.6389 11.914 41.6389 11.29V2.11ZM49.6557 0.885999C49.5837 0.561999 49.7037 0.399999 50.0157 0.399999H51.0057L52.9317 9.346L53.1837 11.344H53.2917L53.5437 9.346L55.2537 0.885999C55.3017 0.694 55.3677 0.568 55.4517 0.508C55.5357 0.435999 55.6737 0.399999 55.8657 0.399999H56.7657L54.1737 12.514C54.1257 12.706 54.0597 12.838 53.9757 12.91C53.9037 12.97 53.7717 13 53.5797 13H52.2477L49.6557 0.885999ZM59.9899 0.399999V12.514C59.9899 12.706 59.9539 12.838 59.8819 12.91C59.8219 12.97 59.6959 13 59.5039 13H58.5499V0.885999C58.5499 0.694 58.5799 0.568 58.6399 0.508C58.7119 0.435999 58.8439 0.399999 59.0359 0.399999H59.9899ZM64.0153 6.988V11.956H67.4533V12.514C67.4533 12.706 67.4173 12.838 67.3453 12.91C67.2853 12.97 67.1593 13 66.9673 13H62.5753V0.885999C62.5753 0.694 62.6053 0.568 62.6653 0.508C62.7373 0.435999 62.8693 0.399999 63.0613 0.399999H67.4533V0.957999C67.4533 1.15 67.4233 1.282 67.3633 1.354C67.3153 1.414 67.1953 1.444 67.0033 1.444H64.0153V5.944H66.9133V6.502C66.9133 6.694 66.8833 6.826 66.8233 6.898C66.7753 6.958 66.6553 6.988 66.4633 6.988H64.0153ZM74.3234 11.29C74.3234 11.914 74.1914 12.358 73.9274 12.622C73.6754 12.874 73.2374 13 72.6134 13H70.4174C70.0694 13 69.8174 12.916 69.6614 12.748C69.5174 12.568 69.4094 12.304 69.3374 11.956H72.0374C72.4094 11.956 72.6434 11.878 72.7394 11.722C72.8354 11.566 72.8834 11.302 72.8834 10.93V8.014C72.8834 7.642 72.8294 7.378 72.7214 7.222C72.6254 7.066 72.3734 6.988 71.9654 6.988H71.0474C70.4234 6.988 69.9794 6.862 69.7154 6.61C69.4634 6.346 69.3374 5.902 69.3374 5.278V2.11C69.3374 1.486 69.4634 1.048 69.7154 0.795999C69.9794 0.531999 70.4234 0.399999 71.0474 0.399999H73.1894C73.5374 0.399999 73.7834 0.489999 73.9274 0.669999C74.0834 0.838 74.1974 1.096 74.2694 1.444H71.6234C71.2514 1.444 71.0174 1.522 70.9214 1.678C70.8254 1.834 70.7774 2.098 70.7774 2.47V4.918C70.7774 5.29 70.8254 5.554 70.9214 5.71C71.0174 5.866 71.2514 5.944 71.6234 5.944H72.6134C73.2374 5.944 73.6754 6.076 73.9274 6.34C74.1914 6.592 74.3234 7.03 74.3234 7.654V11.29Z" fill="#FFA111"/>
</svg>
