<svg width="14" height="14" viewBox="0 0 14 14" fill="none" xmlns="http://www.w3.org/2000/svg">
<path d="M14 7C14 3.13294 10.8644 0 7 0C3.13294 0 0 3.13294 0 7C0 10.493 2.55894 13.3892 5.90625 13.9138V9.02387H4.12869V7.00044H5.90625V5.45738C5.90625 3.70344 6.94969 2.73481 8.54919 2.73481C9.31525 2.73481 10.1172 2.87131 10.1172 2.87131V4.59375H9.233C8.365 4.59375 8.09375 5.13406 8.09375 5.6875V7H10.0349L9.723 9.02344H8.09375V13.9134C11.4384 13.3888 14 10.4926 14 6.99956V7Z" fill="#FFA111"/>
</svg>
