<svg width="14" height="14" viewBox="0 0 14 14" fill="none" xmlns="http://www.w3.org/2000/svg">
<path d="M8.75 7C8.75 7.34612 8.64736 7.68446 8.45507 7.97225C8.26278 8.26003 7.98947 8.48434 7.6697 8.61679C7.34993 8.74924 6.99806 8.7839 6.65859 8.71637C6.31913 8.64885 6.00731 8.48218 5.76256 8.23744C5.51782 7.99269 5.35115 7.68087 5.28363 7.34141C5.2161 7.00194 5.25076 6.65007 5.38321 6.3303C5.51566 6.01053 5.73997 5.73722 6.02775 5.54493C6.31554 5.35264 6.65388 5.25 7 5.25C7.46396 5.25054 7.90877 5.43508 8.23685 5.76315C8.56492 6.09123 8.74946 6.53604 8.75 7ZM12.4688 4.59375V9.40625C12.4678 10.2182 12.1449 10.9966 11.5707 11.5707C10.9966 12.1449 10.2182 12.4678 9.40625 12.4688H4.59375C3.78181 12.4678 3.00339 12.1449 2.42926 11.5707C1.85513 10.9966 1.53218 10.2182 1.53125 9.40625V4.59375C1.53218 3.78181 1.85513 3.00339 2.42926 2.42926C3.00339 1.85513 3.78181 1.53218 4.59375 1.53125H9.40625C10.2182 1.53218 10.9966 1.85513 11.5707 2.42926C12.1449 3.00339 12.4678 3.78181 12.4688 4.59375ZM9.625 7C9.625 6.48082 9.47105 5.97331 9.18261 5.54163C8.89417 5.10995 8.4842 4.7735 8.00454 4.57482C7.52489 4.37614 6.99709 4.32415 6.48789 4.42544C5.97869 4.52673 5.51096 4.77673 5.14384 5.14384C4.77673 5.51096 4.52673 5.97869 4.42544 6.48789C4.32415 6.99709 4.37614 7.52489 4.57482 8.00454C4.7735 8.4842 5.10995 8.89417 5.54163 9.18261C5.97331 9.47105 6.48082 9.625 7 9.625C7.69595 9.62422 8.36318 9.34741 8.85529 8.85529C9.34741 8.36318 9.62422 7.69595 9.625 7ZM10.5 4.15625C10.5 4.02646 10.4615 3.89958 10.3894 3.79166C10.3173 3.68374 10.2148 3.59962 10.0949 3.54995C9.97497 3.50028 9.84302 3.48729 9.71572 3.51261C9.58842 3.53793 9.47149 3.60043 9.37971 3.69221C9.28793 3.78399 9.22543 3.90092 9.20011 4.02822C9.17479 4.15552 9.18778 4.28747 9.23745 4.40739C9.28712 4.5273 9.37124 4.62979 9.47916 4.7019C9.58708 4.77401 9.71396 4.8125 9.84375 4.8125C10.0178 4.8125 10.1847 4.74336 10.3078 4.62029C10.4309 4.49722 10.5 4.3303 10.5 4.15625Z" fill="#FFA111"/>
</svg>
