<svg width="14" height="14" viewBox="0 0 14 14" fill="none" xmlns="http://www.w3.org/2000/svg">
<path d="M7.00003 0.279907C3.28863 0.279907 0.280029 3.28851 0.280029 6.99991C0.280029 10.7113 3.28863 13.7199 7.00003 13.7199C10.7114 13.7199 13.72 10.7113 13.72 6.99991C13.72 3.28851 10.7114 0.279907 7.00003 0.279907ZM5.35503 9.78521H3.99423V5.40601H5.35503V9.78521ZM4.66623 4.86841C4.23643 4.86841 3.95853 4.56391 3.95853 4.18731C3.95853 3.80301 4.24483 3.50761 4.68373 3.50761C5.12263 3.50761 5.39143 3.80301 5.39983 4.18731C5.39983 4.56391 5.12263 4.86841 4.66623 4.86841ZM10.325 9.78521H8.96423V7.35831C8.96423 6.79341 8.76683 6.40981 8.27473 6.40981C7.89883 6.40981 7.67553 6.66951 7.57683 6.91941C7.54043 7.00831 7.53133 7.13431 7.53133 7.25961V9.78451H6.16983V6.80251C6.16983 6.25581 6.15233 5.79871 6.13413 5.40531H7.31643L7.37873 6.01361H7.40603C7.58523 5.72801 8.02413 5.30661 8.75843 5.30661C9.65373 5.30661 10.325 5.90651 10.325 7.19591V9.78521Z" fill="#FFA111"/>
</svg>
